<?xml version="1.0" encoding="UTF-8" standalone="no"?>
<svg
   xmlns:dc="http://purl.org/dc/elements/1.1/"
   xmlns:cc="http://creativecommons.org/ns#"
   xmlns:rdf="http://www.w3.org/1999/02/22-rdf-syntax-ns#"
   xmlns:svg="http://www.w3.org/2000/svg"
   xmlns="http://www.w3.org/2000/svg"
   xmlns:sodipodi="http://sodipodi.sourceforge.net/DTD/sodipodi-0.dtd"
   xmlns:inkscape="http://www.inkscape.org/namespaces/inkscape"
   inkscape:version="1.0beta2 (2b71d25, 2019-12-03)"
   sodipodi:docname="cloud3.svg"
   id="svg8"
   version="1.1"
   viewBox="0 0 21.166665 7.9375"
   height="30"
   width="80">
  <defs
     id="defs2" />
  <sodipodi:namedview
     inkscape:window-maximized="0"
     inkscape:window-y="23"
     inkscape:window-x="0"
     inkscape:window-height="880"
     inkscape:window-width="1600"
     width="60px"
     units="px"
     showgrid="true"
     inkscape:document-rotation="0"
     inkscape:current-layer="layer1"
     inkscape:document-units="mm"
     inkscape:cy="31.56395"
     inkscape:cx="43.416151"
     inkscape:zoom="7.9195959"
     inkscape:pageshadow="2"
     inkscape:pageopacity="0.0"
     borderopacity="1.0"
     bordercolor="#666666"
     pagecolor="#ffffff"
     id="base">
    <inkscape:grid
       empspacing="2"
       id="grid837"
       type="xygrid" />
  </sodipodi:namedview>
  <metadata
     id="metadata5">
    <rdf:RDF>
      <cc:Work
         rdf:about="">
        <dc:format>image/svg+xml</dc:format>
        <dc:type
           rdf:resource="http://purl.org/dc/dcmitype/StillImage" />
        <dc:title></dc:title>
      </cc:Work>
    </rdf:RDF>
  </metadata>
  <g
     id="layer1"
     inkscape:groupmode="layer"
     inkscape:label="Layer 1">
    <rect
       transform="scale(-1,1)"
       y="2.6458333"
       x="-19.579193"
       height="0.52916664"
       width="0.52916664"
       id="rect1763"
       style="fill:#f2f2f2;stroke:#000000;stroke-width:0;stroke-miterlimit:4;stroke-dasharray:none;stroke-opacity:1" />
    <rect
       transform="scale(-1,1)"
       style="fill:#f2f2f2;stroke:#000000;stroke-width:0;stroke-miterlimit:4;stroke-dasharray:none;stroke-opacity:1"
       id="rect1763-0"
       width="0.52916664"
       height="0.52916664"
       x="-19.579185"
       y="2.1166666" />
    <rect
       transform="scale(-1,1)"
       y="1.5874999"
       x="-19.050013"
       height="0.52916664"
       width="0.52916664"
       id="rect1763-0-0"
       style="fill:#f2f2f2;stroke:#000000;stroke-width:0;stroke-miterlimit:4;stroke-dasharray:none;stroke-opacity:1" />
    <rect
       transform="scale(-1,1)"
       style="fill:#f2f2f2;stroke:#000000;stroke-width:0;stroke-miterlimit:4;stroke-dasharray:none;stroke-opacity:1"
       id="rect1763-0-0-7"
       width="0.52916664"
       height="0.52916664"
       x="-18.52084"
       y="1.0583333" />
    <rect
       transform="scale(-1,1)"
       style="fill:#f2f2f2;stroke:#000000;stroke-width:0;stroke-miterlimit:4;stroke-dasharray:none;stroke-opacity:1"
       id="rect1763-0-0-9"
       width="0.52916664"
       height="0.52916664"
       x="-17.99168"
       y="1.0583332" />
    <rect
       transform="scale(-1,1)"
       style="fill:#f2f2f2;stroke:#000000;stroke-width:0;stroke-miterlimit:4;stroke-dasharray:none;stroke-opacity:1"
       id="rect1763-0-0-97"
       width="0.52916664"
       height="0.52916664"
       x="-17.462513"
       y="1.5874999" />
    <rect
       transform="scale(-1,1)"
       style="fill:#f2f2f2;stroke:#000000;stroke-width:0;stroke-miterlimit:4;stroke-dasharray:none;stroke-opacity:1"
       id="rect1763-0-0-975"
       width="0.52916664"
       height="0.52916664"
       x="-16.933346"
       y="1.5874999" />
    <rect
       transform="scale(-1,1)"
       style="fill:#f2f2f2;stroke:#000000;stroke-width:0;stroke-miterlimit:4;stroke-dasharray:none;stroke-opacity:1"
       id="rect1763-0-0-8"
       width="0.52916664"
       height="0.52916664"
       x="-16.404179"
       y="1.0583332" />
    <rect
       transform="scale(-1,1)"
       style="fill:#f2f2f2;stroke:#000000;stroke-width:0;stroke-miterlimit:4;stroke-dasharray:none;stroke-opacity:1"
       id="rect1763-0-0-4"
       width="0.52916664"
       height="0.52916664"
       x="-15.875013"
       y="0.52916646" />
    <rect
       transform="scale(-1,1)"
       style="fill:#f2f2f2;stroke:#000000;stroke-width:0;stroke-miterlimit:4;stroke-dasharray:none;stroke-opacity:1"
       id="rect1763-0-0-44"
       width="0.52916664"
       height="0.52916664"
       x="-15.345846"
       y="-2.0662944e-07" />
    <rect
       transform="scale(-1,1)"
       style="fill:#f2f2f2;stroke:#000000;stroke-width:0;stroke-miterlimit:4;stroke-dasharray:none;stroke-opacity:1"
       id="rect1763-0-0-41"
       width="0.52916664"
       height="0.52916664"
       x="-14.816679"
       y="-2.1060308e-07" />
    <rect
       transform="scale(-1,1)"
       style="fill:#f2f2f2;stroke:#000000;stroke-width:0;stroke-miterlimit:4;stroke-dasharray:none;stroke-opacity:1"
       id="rect1763-0-0-80"
       width="0.52916664"
       height="0.52916664"
       x="-14.287513"
       y="-2.1060308e-07" />
    <rect
       transform="scale(-1,1)"
       style="fill:#f2f2f2;stroke:#000000;stroke-width:0;stroke-miterlimit:4;stroke-dasharray:none;stroke-opacity:1"
       id="rect1763-0-0-40"
       width="0.52916664"
       height="0.52916664"
       x="-13.758347"
       y="-2.1060308e-07" />
    <rect
       transform="scale(-1,1)"
       style="fill:#f2f2f2;stroke:#000000;stroke-width:0;stroke-miterlimit:4;stroke-dasharray:none;stroke-opacity:1"
       id="rect1763-0-0-444"
       width="0.52916664"
       height="0.52916664"
       x="-13.229179"
       y="0.52916646" />
    <rect
       transform="scale(-1,1)"
       style="fill:#f2f2f2;stroke:#000000;stroke-width:0;stroke-miterlimit:4;stroke-dasharray:none;stroke-opacity:1"
       id="rect1763-0-0-1"
       width="0.52916664"
       height="0.52916664"
       x="-12.700012"
       y="1.0583332" />
    <rect
       transform="scale(-1,1)"
       style="fill:#f2f2f2;stroke:#000000;stroke-width:0;stroke-miterlimit:4;stroke-dasharray:none;stroke-opacity:1"
       id="rect1763-0-0-16"
       width="0.52916664"
       height="0.52916664"
       x="-12.700012"
       y="1.5874999" />
    <rect
       transform="scale(-1,1)"
       style="fill:#f2f2f2;stroke:#000000;stroke-width:0;stroke-miterlimit:4;stroke-dasharray:none;stroke-opacity:1"
       id="rect1763-0-0-17"
       width="0.52916664"
       height="0.52916664"
       x="-12.700013"
       y="1.0583333" />
    <rect
       transform="scale(-1,1)"
       style="fill:#f2f2f2;stroke:#000000;stroke-width:0;stroke-miterlimit:4;stroke-dasharray:none;stroke-opacity:1"
       id="rect1763-0-0-75"
       width="0.52916664"
       height="0.52916664"
       x="-12.170847"
       y="0.52916646" />
    <rect
       transform="scale(-1,1)"
       style="fill:#f2f2f2;stroke:#000000;stroke-width:0;stroke-miterlimit:4;stroke-dasharray:none;stroke-opacity:1"
       id="rect1763-0-0-61"
       width="0.52916664"
       height="0.52916664"
       x="-11.64168"
       y="0.52916646" />
    <rect
       transform="scale(-1,1)"
       style="fill:#f2f2f2;stroke:#000000;stroke-width:0;stroke-miterlimit:4;stroke-dasharray:none;stroke-opacity:1"
       id="rect1763-0-0-2"
       width="0.52916664"
       height="0.52916664"
       x="-5.8208508"
       y="1.5874999" />
    <rect
       transform="scale(-1,1)"
       style="fill:#f2f2f2;stroke:#000000;stroke-width:0;stroke-miterlimit:4;stroke-dasharray:none;stroke-opacity:1"
       id="rect1763-0-0-30"
       width="0.52916664"
       height="0.52916664"
       x="-5.2916846"
       y="2.1166666" />
    <rect
       transform="scale(-1,1)"
       style="fill:#f2f2f2;stroke:#000000;stroke-width:0;stroke-miterlimit:4;stroke-dasharray:none;stroke-opacity:1"
       id="rect1763-0-0-0"
       width="0.52916664"
       height="0.52916664"
       x="-4.7625184"
       y="2.6458333" />
    <rect
       transform="scale(-1,1)"
       style="fill:#f2f2f2;stroke:#000000;stroke-width:0;stroke-miterlimit:4;stroke-dasharray:none;stroke-opacity:1"
       id="rect1763-0-0-90"
       width="0.52916664"
       height="0.52916664"
       x="-4.2333522"
       y="2.1166666" />
    <rect
       transform="scale(-1,1)"
       style="fill:#f2f2f2;stroke:#000000;stroke-width:0;stroke-miterlimit:4;stroke-dasharray:none;stroke-opacity:1"
       id="rect1763-0-0-96"
       width="0.52916664"
       height="0.52916664"
       x="-3.7041831"
       y="2.1166663" />
    <rect
       transform="scale(-1,1)"
       style="fill:#f2f2f2;stroke:#000000;stroke-width:0;stroke-miterlimit:4;stroke-dasharray:none;stroke-opacity:1"
       id="rect1763-0-0-63"
       width="0.52916664"
       height="0.52916664"
       x="-3.1750159"
       y="2.1166663" />
    <rect
       transform="scale(-1,1)"
       style="fill:#f2f2f2;stroke:#000000;stroke-width:0;stroke-miterlimit:4;stroke-dasharray:none;stroke-opacity:1"
       id="rect1763-0-0-98"
       width="0.52916664"
       height="0.52916664"
       x="-2.6458488"
       y="2.645833" />
    <rect
       transform="scale(-1,1)"
       style="fill:#f2f2f2;stroke:#000000;stroke-width:0;stroke-miterlimit:4;stroke-dasharray:none;stroke-opacity:1"
       id="rect1763-0-0-08"
       width="0.52916664"
       height="0.52916664"
       x="-2.1166816"
       y="3.1749997" />
    <rect
       transform="scale(-1,1)"
       style="fill:#f2f2f2;stroke:#000000;stroke-width:0;stroke-miterlimit:4;stroke-dasharray:none;stroke-opacity:1"
       id="rect1763-0-0-22"
       width="0.52916664"
       height="0.52916664"
       x="-1.5875144"
       y="3.1749997" />
    <rect
       transform="scale(-1,1)"
       style="fill:#f2f2f2;stroke:#000000;stroke-width:0;stroke-miterlimit:4;stroke-dasharray:none;stroke-opacity:1"
       id="rect1763-0-0-58"
       width="0.52916664"
       height="0.52916664"
       x="-1.0583472"
       y="3.7041664" />
    <rect
       transform="scale(-1,1)"
       style="fill:#f2f2f2;stroke:#000000;stroke-width:0;stroke-miterlimit:4;stroke-dasharray:none;stroke-opacity:1"
       id="rect1763-0-0-51"
       width="0.52916664"
       height="0.52916664"
       x="-1.0583472"
       y="4.2333331" />
    <rect
       transform="scale(-1,1)"
       style="fill:#f2f2f2;stroke:#000000;stroke-width:0;stroke-miterlimit:4;stroke-dasharray:none;stroke-opacity:1"
       id="rect1763-0-0-31"
       width="0.52916664"
       height="0.52916664"
       x="-1.0583472"
       y="4.7624998" />
    <rect
       transform="scale(-1,1)"
       style="fill:#f2f2f2;stroke:#000000;stroke-width:0;stroke-miterlimit:4;stroke-dasharray:none;stroke-opacity:1"
       id="rect1763-0-0-29"
       width="0.52916664"
       height="0.52916664"
       x="-1.5875144"
       y="5.2916665" />
    <rect
       transform="scale(-1,1)"
       style="fill:#f2f2f2;stroke:#000000;stroke-width:0;stroke-miterlimit:4;stroke-dasharray:none;stroke-opacity:1"
       id="rect1763-0-0-18"
       width="0.52916664"
       height="0.52916664"
       x="-2.1166816"
       y="5.8208332" />
    <rect
       transform="scale(-1,1)"
       style="fill:#f2f2f2;stroke:#000000;stroke-width:0;stroke-miterlimit:4;stroke-dasharray:none;stroke-opacity:1"
       id="rect1763-0-0-87"
       width="0.52916664"
       height="0.52916664"
       x="-2.6458488"
       y="6.3499999" />
    <rect
       transform="scale(-1,1)"
       style="fill:#f2f2f2;stroke:#000000;stroke-width:0;stroke-miterlimit:4;stroke-dasharray:none;stroke-opacity:1"
       id="rect1763-0-0-37"
       width="0.52916664"
       height="0.52916664"
       x="-3.1750159"
       y="6.3499999" />
    <rect
       transform="scale(-1,1)"
       style="fill:#f2f2f2;stroke:#000000;stroke-width:0;stroke-miterlimit:4;stroke-dasharray:none;stroke-opacity:1"
       id="rect1763-0-0-53"
       width="0.52916664"
       height="0.52916664"
       x="-3.7041831"
       y="6.3499999" />
    <rect
       transform="scale(-1,1)"
       style="fill:#f2f2f2;stroke:#000000;stroke-width:0;stroke-miterlimit:4;stroke-dasharray:none;stroke-opacity:1"
       id="rect1763-0-0-12"
       width="0.52916664"
       height="0.52916664"
       x="-4.2333503"
       y="6.3499999" />
    <rect
       transform="scale(-1,1)"
       style="fill:#f2f2f2;stroke:#000000;stroke-width:0;stroke-miterlimit:4;stroke-dasharray:none;stroke-opacity:1"
       id="rect1763-0-0-302"
       width="0.52916664"
       height="0.52916664"
       x="-4.7625175"
       y="5.8208332" />
    <rect
       transform="scale(-1,1)"
       style="fill:#f2f2f2;stroke:#000000;stroke-width:0;stroke-miterlimit:4;stroke-dasharray:none;stroke-opacity:1"
       id="rect1763-0-0-47"
       width="0.52916664"
       height="0.52916664"
       x="-5.2916837"
       y="6.3499999" />
    <rect
       transform="scale(-1,1)"
       style="fill:#f2f2f2;stroke:#000000;stroke-width:0;stroke-miterlimit:4;stroke-dasharray:none;stroke-opacity:1"
       id="rect1763-0-0-24"
       width="0.52916664"
       height="0.52916664"
       x="-5.8208499"
       y="6.3499999" />
    <rect
       transform="scale(-1,1)"
       style="fill:#f2f2f2;stroke:#000000;stroke-width:0;stroke-miterlimit:4;stroke-dasharray:none;stroke-opacity:1"
       id="rect1763-0-0-27"
       width="0.52916664"
       height="0.52916664"
       x="-11.641678"
       y="5.8208332" />
    <rect
       transform="scale(-1,1)"
       style="fill:#f2f2f2;stroke:#000000;stroke-width:0;stroke-miterlimit:4;stroke-dasharray:none;stroke-opacity:1"
       id="rect1763-0-0-170"
       width="0.52916664"
       height="0.52916664"
       x="-12.170845"
       y="5.8208332" />
    <rect
       transform="scale(-1,1)"
       style="fill:#f2f2f2;stroke:#000000;stroke-width:0;stroke-miterlimit:4;stroke-dasharray:none;stroke-opacity:1"
       id="rect1763-0-0-34"
       width="0.52916664"
       height="0.52916664"
       x="-12.700011"
       y="5.8208332" />
    <rect
       transform="scale(-1,1)"
       style="fill:#f2f2f2;stroke:#000000;stroke-width:0;stroke-miterlimit:4;stroke-dasharray:none;stroke-opacity:1"
       id="rect1763-0-0-175"
       width="0.52916664"
       height="0.52916664"
       x="-13.229177"
       y="5.2916665" />
    <rect
       transform="scale(-1,1)"
       style="fill:#f2f2f2;stroke:#000000;stroke-width:0;stroke-miterlimit:4;stroke-dasharray:none;stroke-opacity:1"
       id="rect1763-0-0-52"
       width="0.52916664"
       height="0.52916664"
       x="-13.758347"
       y="5.2916665" />
    <rect
       transform="scale(-1,1)"
       style="fill:#f2f2f2;stroke:#000000;stroke-width:0;stroke-miterlimit:4;stroke-dasharray:none;stroke-opacity:1"
       id="rect1763-0-0-70"
       width="0.52916664"
       height="0.52916664"
       x="-14.287513"
       y="5.8208332" />
    <rect
       transform="scale(-1,1)"
       style="fill:#f2f2f2;stroke:#000000;stroke-width:0;stroke-miterlimit:4;stroke-dasharray:none;stroke-opacity:1"
       id="rect1763-0-0-33"
       width="0.52916664"
       height="0.52916664"
       x="-14.816679"
       y="5.8208332" />
    <rect
       transform="scale(-1,1)"
       style="fill:#f2f2f2;stroke:#000000;stroke-width:0;stroke-miterlimit:4;stroke-dasharray:none;stroke-opacity:1"
       id="rect1763-0-0-04"
       width="0.52916664"
       height="0.52916664"
       x="-15.345846"
       y="5.8208332" />
    <rect
       transform="scale(-1,1)"
       style="fill:#f2f2f2;stroke:#000000;stroke-width:0;stroke-miterlimit:4;stroke-dasharray:none;stroke-opacity:1"
       id="rect1763-0-0-185"
       width="0.52916664"
       height="0.52916664"
       x="-15.875013"
       y="5.8208332" />
    <rect
       transform="scale(-1,1)"
       style="fill:#f2f2f2;stroke:#000000;stroke-width:0;stroke-miterlimit:4;stroke-dasharray:none;stroke-opacity:1"
       id="rect1763-0-0-971"
       width="0.52916664"
       height="0.52916664"
       x="-16.404179"
       y="5.2916665" />
    <rect
       transform="scale(-1,1)"
       style="fill:#f2f2f2;stroke:#000000;stroke-width:0;stroke-miterlimit:4;stroke-dasharray:none;stroke-opacity:1"
       id="rect1763-0-0-799"
       width="0.52916664"
       height="0.52916664"
       x="-16.933346"
       y="5.2916665" />
    <rect
       transform="scale(-1,1)"
       style="fill:#f2f2f2;stroke:#000000;stroke-width:0;stroke-miterlimit:4;stroke-dasharray:none;stroke-opacity:1"
       id="rect1763-0-0-94"
       width="0.52916664"
       height="0.52916664"
       x="-17.462513"
       y="5.8208332" />
    <rect
       transform="scale(-1,1)"
       style="fill:#f2f2f2;stroke:#000000;stroke-width:0;stroke-miterlimit:4;stroke-dasharray:none;stroke-opacity:1"
       id="rect1763-0-0-510"
       width="0.52916664"
       height="0.52916664"
       x="-17.99168"
       y="6.3499999" />
    <rect
       transform="scale(-1,1)"
       style="fill:#f2f2f2;stroke:#000000;stroke-width:0;stroke-miterlimit:4;stroke-dasharray:none;stroke-opacity:1"
       id="rect1763-0-0-372"
       width="0.52916664"
       height="0.52916664"
       x="-18.520847"
       y="6.3499999" />
    <rect
       transform="scale(-1,1)"
       style="fill:#f2f2f2;stroke:#000000;stroke-width:0;stroke-miterlimit:4;stroke-dasharray:none;stroke-opacity:1"
       id="rect1763-0-0-759"
       width="0.52916664"
       height="0.52916664"
       x="-19.050013"
       y="5.8208332" />
    <rect
       transform="scale(-1,1)"
       style="fill:#f2f2f2;stroke:#000000;stroke-width:0;stroke-miterlimit:4;stroke-dasharray:none;stroke-opacity:1"
       id="rect1763-0-0-72"
       width="0.52916664"
       height="0.52916664"
       x="-19.57918"
       y="5.2916665" />
    <rect
       transform="scale(-1,1)"
       style="fill:#f2f2f2;stroke:#000000;stroke-width:0;stroke-miterlimit:4;stroke-dasharray:none;stroke-opacity:1"
       id="rect1763-0-0-62"
       width="0.52916664"
       height="0.52916664"
       x="-19.57918"
       y="3.7041664" />
    <rect
       transform="scale(-1,1)"
       style="fill:#f2f2f2;stroke:#000000;stroke-width:0;stroke-miterlimit:4;stroke-dasharray:none;stroke-opacity:1"
       id="rect1763-0-0-82"
       width="0.52916664"
       height="0.52916664"
       x="-20.108347"
       y="3.1749997" />
    <rect
       transform="scale(-1,1)"
       style="fill:#f2f2f2;stroke:#000000;stroke-width:0;stroke-miterlimit:4;stroke-dasharray:none;stroke-opacity:1"
       id="rect1763-0-0-03"
       width="0.52916664"
       height="0.52916664"
       x="-19.57918"
       y="4.2333331" />
    <rect
       transform="scale(-1,1)"
       style="fill:#f2f2f2;stroke:#000000;stroke-width:0;stroke-miterlimit:4;stroke-dasharray:none;stroke-opacity:1"
       id="rect1763-0-0-472"
       width="0.52916664"
       height="0.52916664"
       x="-20.108347"
       y="4.7624998" />
    <rect
       transform="scale(-1,1)"
       style="fill:#f2f2f2;stroke:#000000;stroke-width:0;stroke-miterlimit:4;stroke-dasharray:none;stroke-opacity:1"
       id="rect1763-0-0-030"
       width="0.52916664"
       height="0.52916664"
       x="-14.81668"
       y="2.645833" />
    <rect
       transform="scale(-1,1)"
       style="fill:#f2f2f2;stroke:#000000;stroke-width:0;stroke-miterlimit:4;stroke-dasharray:none;stroke-opacity:1"
       id="rect1763-0-0-870"
       width="0.52916664"
       height="0.52916664"
       x="-14.287513"
       y="2.1166663" />
    <rect
       transform="scale(-1,1)"
       style="fill:#f2f2f2;stroke:#000000;stroke-width:0;stroke-miterlimit:4;stroke-dasharray:none;stroke-opacity:1"
       id="rect1763-0-0-26"
       width="0.52916664"
       height="0.52916664"
       x="-13.758347"
       y="2.1166663" />
    <rect
       transform="scale(-1,1)"
       style="fill:#f2f2f2;stroke:#000000;stroke-width:0;stroke-miterlimit:4;stroke-dasharray:none;stroke-opacity:1"
       id="rect1763-0-0-805"
       width="0.52916664"
       height="0.52916664"
       x="-13.229179"
       y="3.1749997" />
    <rect
       transform="scale(-1,1)"
       style="fill:#f2f2f2;stroke:#000000;stroke-width:0;stroke-miterlimit:4;stroke-dasharray:none;stroke-opacity:1"
       id="rect1763-0-0-66"
       width="0.52916664"
       height="0.52916664"
       x="-13.229179"
       y="2.645833" />
    <rect
       y="3.1749997"
       x="14.81668"
       height="0.52916664"
       width="0.52916664"
       id="rect1763-0-0-030-8"
       style="fill:#f2f2f2;stroke:#000000;stroke-width:0;stroke-miterlimit:4;stroke-dasharray:none;stroke-opacity:1" />
    <rect
       y="2.645833"
       x="15.345846"
       height="0.52916664"
       width="0.52916664"
       id="rect1763-0-0-870-3"
       style="fill:#f2f2f2;stroke:#000000;stroke-width:0;stroke-miterlimit:4;stroke-dasharray:none;stroke-opacity:1" />
    <rect
       y="2.645833"
       x="15.875013"
       height="0.52916664"
       width="0.52916664"
       id="rect1763-0-0-26-5"
       style="fill:#f2f2f2;stroke:#000000;stroke-width:0;stroke-miterlimit:4;stroke-dasharray:none;stroke-opacity:1" />
    <rect
       y="3.7041664"
       x="16.404181"
       height="0.52916664"
       width="0.52916664"
       id="rect1763-0-0-805-1"
       style="fill:#f2f2f2;stroke:#000000;stroke-width:0;stroke-miterlimit:4;stroke-dasharray:none;stroke-opacity:1" />
    <rect
       y="3.1749997"
       x="16.404181"
       height="0.52916664"
       width="0.52916664"
       id="rect1763-0-0-66-9"
       style="fill:#f2f2f2;stroke:#000000;stroke-width:0;stroke-miterlimit:4;stroke-dasharray:none;stroke-opacity:1" />
    <rect
       transform="scale(-1,1)"
       y="3.1749997"
       x="-18.520847"
       height="0.52916664"
       width="0.52916664"
       id="rect1763-0-0-030-7"
       style="fill:#f2f2f2;stroke:#000000;stroke-width:0;stroke-miterlimit:4;stroke-dasharray:none;stroke-opacity:1" />
    <rect
       transform="scale(-1,1)"
       y="2.645833"
       x="-17.99168"
       height="0.52916664"
       width="0.52916664"
       id="rect1763-0-0-870-0"
       style="fill:#f2f2f2;stroke:#000000;stroke-width:0;stroke-miterlimit:4;stroke-dasharray:none;stroke-opacity:1" />
    <rect
       transform="scale(-1,1)"
       y="3.1749997"
       x="-11.64168"
       height="0.52916664"
       width="0.52916664"
       id="rect1763-0-0-66-0"
       style="fill:#f2f2f2;stroke:#000000;stroke-width:0;stroke-miterlimit:4;stroke-dasharray:none;stroke-opacity:1" />
    <rect
       transform="scale(-1,1)"
       y="3.7041664"
       x="-5.8208508"
       height="0.52916664"
       width="0.52916664"
       id="rect1763-0-0-66-1"
       style="fill:#f2f2f2;stroke:#000000;stroke-width:0;stroke-miterlimit:4;stroke-dasharray:none;stroke-opacity:1" />
    <rect
       transform="scale(-1,1)"
       y="4.2333331"
       x="-5.2916846"
       height="0.52916664"
       width="0.52916664"
       id="rect1763-0-0-66-8"
       style="fill:#f2f2f2;stroke:#000000;stroke-width:0;stroke-miterlimit:4;stroke-dasharray:none;stroke-opacity:1" />
    <rect
       transform="scale(-1,1)"
       y="4.2333331"
       x="-4.7625184"
       height="0.52916664"
       width="0.52916664"
       id="rect1763-0-0-66-12"
       style="fill:#f2f2f2;stroke:#000000;stroke-width:0;stroke-miterlimit:4;stroke-dasharray:none;stroke-opacity:1" />
    <rect
       y="5.2916665"
       x="2.1166816"
       height="0.52916664"
       width="0.52916664"
       id="rect1763-0-0-66-05"
       style="fill:#f2f2f2;stroke:#000000;stroke-width:0;stroke-miterlimit:4;stroke-dasharray:none;stroke-opacity:1" />
    <rect
       y="4.7624998"
       x="2.1166835"
       height="0.52916664"
       width="0.52916664"
       id="rect1763-0-0-66-89"
       style="fill:#f2f2f2;stroke:#000000;stroke-width:0;stroke-miterlimit:4;stroke-dasharray:none;stroke-opacity:1" />
    <rect
       y="4.2333331"
       x="2.6458507"
       height="0.52916664"
       width="0.52916664"
       id="rect1763-0-0-66-2"
       style="fill:#f2f2f2;stroke:#000000;stroke-width:0;stroke-miterlimit:4;stroke-dasharray:none;stroke-opacity:1" />
    <rect
       y="4.7624998"
       x="3.1750178"
       height="0.52916664"
       width="0.52916664"
       id="rect1763-0-0-66-4"
       style="fill:#f2f2f2;stroke:#000000;stroke-width:0;stroke-miterlimit:4;stroke-dasharray:none;stroke-opacity:1" />
    <rect
       transform="scale(-1,1)"
       y="5.8208332"
       x="-4.2333503"
       height="0.52916664"
       width="0.52916664"
       id="rect1763-0-0-66-7"
       style="fill:#f2f2f2;stroke:#000000;stroke-width:0;stroke-miterlimit:4;stroke-dasharray:none;stroke-opacity:1" />
    <path
       inkscape:connector-curvature="0"
       id="path2341"
       d="m 18.511717,6.067811 0.0098,-0.2589176 0.258917,-0.00976 0.258918,-0.00976 V 5.5402188 5.2910589 h 0.267269 0.26727 V 5.0404937 4.7899285 H 19.306579 19.03931 V 4.238685 3.6874418 h 0.267269 0.26727 V 3.4368766 3.1863114 H 19.306579 19.03931 V 2.6517724 2.1172332 H 18.77204 18.50477 V 1.866668 1.6161029 H 17.986936 17.469101 V 1.866668 2.1172332 H 16.934562 16.400023 V 1.8680734 1.6189135 l -0.258917,-0.00976 -0.258918,-0.00976 -0.0098,-0.2589174 -0.0098,-0.2589173 H 15.596809 15.330944 V 0.8142943 0.54702476 H 14.278571 13.226197 V 0.8142943 1.0815638 H 12.975632 12.725066 V 1.5993985 2.1172332 H 12.441093 12.157119 V 1.5993985 1.0815638 H 11.372015 10.58691 v 0.2672695 0.2672696 h -0.267269 -0.26727 V 1.866668 2.1172332 H 9.7851017 9.517832 V 1.866668 1.6161029 H 8.7327278 7.9476236 V 1.866668 2.1172332 H 7.6803543 7.4130846 V 2.3845028 2.6517724 H 6.8952501 6.3774152 v 0.7851042 0.7851042 h 0.2505652 0.2505652 v 0.2672694 0.2672696 h 0.2497169 0.2497167 l 0.0092,-0.5261869 0.0092,-0.5261869 0.2575367,-0.00973 0.2575369,-0.00973 0.00973,-0.257537 0.00973,-0.2575369 0.2756215,-0.0097 0.2756217,-0.0097 V 3.418823 3.6874436 H 8.7494328 9.0167022 V 3.9714175 4.2553913 H 8.7327284 8.4487545 V 3.9881217 3.7208523 H 8.1981894 7.9476242 v 0.534539 0.5345391 H 7.6803548 7.4130852 V 5.0404955 5.2910607 H 8.1981894 8.9832936 V 5.0237892 4.7565198 h 0.5369935 0.5369939 l -0.01081,0.2756218 -0.01081,0.2756215 0.542892,-0.00991 0.542891,-0.00991 v 0.2521233 0.2521238 h 0.785104 0.785104 V 5.541624 5.2910589 h 0.534539 0.534539 v 0.2491599 0.2491597 l 0.258918,0.00976 c 0.142404,0.00537 0.615972,0.00548 1.052373,2.339e-4 l 0.793457,-0.00951 V 5.5404525 5.2910443 h 0.534539 0.534539 v 0.24916 0.2491597 l 0.258917,0.00976 0.258918,0.00977 0.0098,0.2589175 0.0098,0.2589173 h 0.515024 0.515024 z M 16.400023,3.7208505 V 3.1863114 H 15.882188 15.364353 V 3.4535808 3.7208505 H 15.08038 14.796406 V 3.4535808 3.1863114 h -0.26727 -0.267269 V 2.9190418 2.6517724 h -0.517835 -0.517835 v 0.534539 0.5345391 h -0.267269 -0.26727 V 3.169607 2.6183636 h 0.26727 0.267269 V 2.3677984 2.1172332 h 0.534539 0.534539 V 2.3663931 2.615553 l 0.258918,0.00976 0.258917,0.00976 0.0098,0.2589174 0.0098,0.2589175 h 0.247754 0.247755 l 0.0098,-0.2589175 0.0098,-0.2589174 h 0.534539 0.534539 l 0.0098,0.2589174 0.0098,0.2589175 h 0.24916 0.24916 v 0.5512432 0.5512435 h -0.267269 -0.26727 z M 17.970231,3.4535808 V 3.1863114 h -0.26862 -0.268621 l 0.0097,-0.2756217 0.0097,-0.2756218 h 0.267269 0.26727 l 0.0098,0.2589173 0.0098,0.2589176 h 0.265866 0.265864 v 0.2839738 0.2839739 h -0.283974 -0.283974 z m -6.88219,0 V 3.1863114 H 10.837476 10.586911 V 3.4535808 3.7208505 H 10.052372 9.5178326 V 3.4368766 3.1529028 h 0.5345394 0.534539 V 2.8856331 2.6183636 h 0.267269 0.26727 v 0.2672695 0.2672697 h 0.267269 0.26727 v 0.2839738 0.2839739 h -0.283974 -0.283974 z"
       style="fill:#ffffff;stroke:#000000;stroke-width:0;stroke-miterlimit:4;stroke-dasharray:none;stroke-opacity:1" />
    <rect
       transform="scale(-1,1)"
       y="0.5291664"
       x="-11.112513"
       height="0.52916664"
       width="0.52916664"
       id="rect1763-0-0-40-3"
       style="fill:#f2f2f2;stroke:#000000;stroke-width:0;stroke-miterlimit:4;stroke-dasharray:none;stroke-opacity:1" />
    <rect
       transform="scale(-1,1)"
       y="1.058333"
       x="-10.583347"
       height="0.52916664"
       width="0.52916664"
       id="rect1763-0-0-40-5"
       style="fill:#f2f2f2;stroke:#000000;stroke-width:0;stroke-miterlimit:4;stroke-dasharray:none;stroke-opacity:1" />
    <rect
       transform="scale(-1,1)"
       y="6.8791666"
       x="-6.3500209"
       height="0.52916664"
       width="0.52916664"
       id="rect1763-0-0-40-6"
       style="fill:#f2f2f2;stroke:#000000;stroke-width:0;stroke-miterlimit:4;stroke-dasharray:none;stroke-opacity:1" />
    <rect
       transform="scale(-1,1)"
       y="6.8791666"
       x="-6.8791814"
       height="0.52916664"
       width="0.52916664"
       id="rect1763-0-0-40-8"
       style="fill:#f2f2f2;stroke:#000000;stroke-width:0;stroke-miterlimit:4;stroke-dasharray:none;stroke-opacity:1" />
    <rect
       transform="scale(-1,1)"
       y="6.8791666"
       x="-7.4083476"
       height="0.52916664"
       width="0.52916664"
       id="rect1763-0-0-40-7"
       style="fill:#f2f2f2;stroke:#000000;stroke-width:0;stroke-miterlimit:4;stroke-dasharray:none;stroke-opacity:1" />
    <rect
       transform="scale(-1,1)"
       y="6.8791666"
       x="-7.9375148"
       height="0.52916664"
       width="0.52916664"
       id="rect1763-0-0-40-2"
       style="fill:#f2f2f2;stroke:#000000;stroke-width:0;stroke-miterlimit:4;stroke-dasharray:none;stroke-opacity:1" />
    <rect
       transform="scale(-1,1)"
       y="6.3499999"
       x="-8.4666805"
       height="0.52916664"
       width="0.52916664"
       id="rect1763-0-0-40-68"
       style="fill:#f2f2f2;stroke:#000000;stroke-width:0;stroke-miterlimit:4;stroke-dasharray:none;stroke-opacity:1" />
    <rect
       transform="scale(-1,1)"
       y="6.3499999"
       x="-8.9958477"
       height="0.52916664"
       width="0.52916664"
       id="rect1763-0-0-40-4"
       style="fill:#f2f2f2;stroke:#000000;stroke-width:0;stroke-miterlimit:4;stroke-dasharray:none;stroke-opacity:1" />
    <rect
       transform="scale(-1,1)"
       y="6.3499999"
       x="-9.525013"
       height="0.52916664"
       width="0.52916664"
       id="rect1763-0-0-40-0"
       style="fill:#f2f2f2;stroke:#000000;stroke-width:0;stroke-miterlimit:4;stroke-dasharray:none;stroke-opacity:1" />
    <rect
       transform="scale(-1,1)"
       y="5.8208332"
       x="-10.05418"
       height="0.52916664"
       width="0.52916664"
       id="rect1763-0-0-40-64"
       style="fill:#f2f2f2;stroke:#000000;stroke-width:0;stroke-miterlimit:4;stroke-dasharray:none;stroke-opacity:1" />
    <rect
       transform="scale(-1,1)"
       y="6.3499999"
       x="-10.583345"
       height="0.52916664"
       width="0.52916664"
       id="rect1763-0-0-40-86"
       style="fill:#f2f2f2;stroke:#000000;stroke-width:0;stroke-miterlimit:4;stroke-dasharray:none;stroke-opacity:1" />
    <rect
       transform="scale(-1,1)"
       y="6.3499999"
       x="-11.112513"
       height="0.52916664"
       width="0.52916664"
       id="rect1763-0-0-40-15"
       style="fill:#f2f2f2;stroke:#000000;stroke-width:0;stroke-miterlimit:4;stroke-dasharray:none;stroke-opacity:1" />
    <rect
       transform="scale(-1,1)"
       y="1.5874996"
       x="-10.05418"
       height="0.52916664"
       width="0.52916664"
       id="rect1763-0-0-40-32"
       style="fill:#f2f2f2;stroke:#000000;stroke-width:0;stroke-miterlimit:4;stroke-dasharray:none;stroke-opacity:1" />
    <rect
       transform="scale(-1,1)"
       y="1.0583329"
       x="-9.525013"
       height="0.52916664"
       width="0.52916664"
       id="rect1763-0-0-40-45"
       style="fill:#f2f2f2;stroke:#000000;stroke-width:0;stroke-miterlimit:4;stroke-dasharray:none;stroke-opacity:1" />
    <rect
       transform="scale(-1,1)"
       y="0.52916628"
       x="-8.9958477"
       height="0.52916664"
       width="0.52916664"
       id="rect1763-0-0-40-02"
       style="fill:#f2f2f2;stroke:#000000;stroke-width:0;stroke-miterlimit:4;stroke-dasharray:none;stroke-opacity:1" />
    <rect
       transform="scale(-1,1)"
       y="0.52916628"
       x="-8.4666805"
       height="0.52916664"
       width="0.52916664"
       id="rect1763-0-0-40-18"
       style="fill:#f2f2f2;stroke:#000000;stroke-width:0;stroke-miterlimit:4;stroke-dasharray:none;stroke-opacity:1" />
    <rect
       transform="scale(-1,1)"
       y="0.52916628"
       x="-7.9375148"
       height="0.52916664"
       width="0.52916664"
       id="rect1763-0-0-40-80"
       style="fill:#f2f2f2;stroke:#000000;stroke-width:0;stroke-miterlimit:4;stroke-dasharray:none;stroke-opacity:1" />
    <rect
       transform="scale(-1,1)"
       y="0.52916628"
       x="-7.4083486"
       height="0.52916664"
       width="0.52916664"
       id="rect1763-0-0-40-9"
       style="fill:#f2f2f2;stroke:#000000;stroke-width:0;stroke-miterlimit:4;stroke-dasharray:none;stroke-opacity:1" />
    <rect
       transform="scale(-1,1)"
       y="1.0583329"
       x="-6.8791823"
       height="0.52916664"
       width="0.52916664"
       id="rect1763-0-0-40-88"
       style="fill:#f2f2f2;stroke:#000000;stroke-width:0;stroke-miterlimit:4;stroke-dasharray:none;stroke-opacity:1" />
    <rect
       transform="scale(-1,1)"
       y="1.5874996"
       x="-6.3500161"
       height="0.52916664"
       width="0.52916664"
       id="rect1763-0-0-40-69"
       style="fill:#f2f2f2;stroke:#000000;stroke-width:0;stroke-miterlimit:4;stroke-dasharray:none;stroke-opacity:1" />
    <rect
       transform="scale(-1,1)"
       y="3.1749997"
       x="-9.525013"
       height="0.52916664"
       width="0.52916664"
       id="rect1763-0-0-40-85"
       style="fill:#f2f2f2;stroke:#000000;stroke-width:0;stroke-miterlimit:4;stroke-dasharray:none;stroke-opacity:1" />
    <rect
       transform="scale(-1,1)"
       y="2.645833"
       x="-8.9958477"
       height="0.52916664"
       width="0.52916664"
       id="rect1763-0-0-40-65"
       style="fill:#f2f2f2;stroke:#000000;stroke-width:0;stroke-miterlimit:4;stroke-dasharray:none;stroke-opacity:1" />
    <rect
       transform="scale(-1,1)"
       y="2.645833"
       x="-8.4666805"
       height="0.52916664"
       width="0.52916664"
       id="rect1763-0-0-40-321"
       style="fill:#f2f2f2;stroke:#000000;stroke-width:0;stroke-miterlimit:4;stroke-dasharray:none;stroke-opacity:1" />
    <rect
       transform="scale(-1,1)"
       y="2.645833"
       x="-7.9375148"
       height="0.52916664"
       width="0.52916664"
       id="rect1763-0-0-40-97"
       style="fill:#f2f2f2;stroke:#000000;stroke-width:0;stroke-miterlimit:4;stroke-dasharray:none;stroke-opacity:1" />
    <rect
       transform="scale(-1,1)"
       y="3.1749997"
       x="-7.4083486"
       height="0.52916664"
       width="0.52916664"
       id="rect1763-0-0-40-55"
       style="fill:#f2f2f2;stroke:#000000;stroke-width:0;stroke-miterlimit:4;stroke-dasharray:none;stroke-opacity:1" />
    <rect
       transform="scale(-1,1)"
       y="3.7041664"
       x="-9.525013"
       height="0.52916664"
       width="0.52916664"
       id="rect1763-0-0-40-95"
       style="fill:#f2f2f2;stroke:#000000;stroke-width:0;stroke-miterlimit:4;stroke-dasharray:none;stroke-opacity:1" />
    <rect
       transform="scale(-1,1)"
       y="3.7041664"
       x="-6.8791823"
       height="0.52916664"
       width="0.52916664"
       id="rect1763-0-0-40-36"
       style="fill:#f2f2f2;stroke:#000000;stroke-width:0;stroke-miterlimit:4;stroke-dasharray:none;stroke-opacity:1" />
    <path
       inkscape:connector-curvature="0"
       id="path2544"
       d="m 7.9211627,6.60235 0.00976,-0.2589173 0.792062,-0.00895 0.7920616,-0.00895 0.00975,-0.2583159 0.00975,-0.2583161 0.2589173,-0.00976 0.2589174,-0.00976 v 0.2686751 0.2686746 h 0.51643 0.516429 l 0.0098,-0.2589173 0.0098,-0.2589175 0.793456,-0.00896 0.793457,-0.00896 V 5.5410192 5.2910589 h 0.534536 0.534539 v 0.2466702 c 0,0.229321 0.0053,0.2476709 0.07517,0.26089 0.06386,0.012081 1.023474,0.010702 1.804069,-0.00259 l 0.225509,-0.00384 V 5.5416193 5.2910541 h 0.534539 0.534539 v 0.2505652 c 0,0.2146554 0.0084,0.2512065 0.05847,0.2550419 0.03216,0.00246 0.141152,0.00834 0.242213,0.013065 0.101061,0.00472 0.195023,0.010226 0.208805,0.012229 0.01378,0.00201 0.02506,0.1163933 0.02506,0.2542042 v 0.2505652 h 0.517834 0.517835 v -0.250565 c 0,-0.1378109 0.01127,-0.2522029 0.02506,-0.2542042 0.01378,-0.00201 0.107744,-0.0075 0.208805,-0.012229 0.101062,-0.00472 0.210057,-0.010598 0.242213,-0.01306 0.05009,-0.00384 0.05847,-0.040387 0.05847,-0.255042 V 5.2910589 h 0.267269 0.26727 V 5.0404937 4.7899285 H 19.306579 19.03931 V 4.238685 3.6874418 h 0.267269 0.26727 V 3.4368766 3.1863114 H 19.306579 19.03931 V 2.6517724 2.1172332 H 18.77204 18.50477 V 1.866668 1.6161029 H 17.986936 17.469101 V 1.866668 2.1172332 H 16.934562 16.400023 V 1.866668 c 0,-0.2146556 -0.0084,-0.2512067 -0.05847,-0.2550418 -0.03216,-0.00246 -0.141152,-0.00834 -0.242213,-0.013065 -0.101062,-0.00472 -0.195024,-0.010226 -0.208805,-0.012228 -0.01378,-0.002 -0.02506,-0.1163936 -0.02506,-0.2542045 V 1.0815636 h -0.267269 -0.26727 V 0.8142943 0.54702476 H 14.278572 13.226198 V 0.8142943 1.0815638 H 12.975633 12.725068 V 1.5993985 2.1172332 H 12.441094 12.15712 V 1.5993985 1.0815638 h -0.785104 -0.785105 v 0.2672695 0.2672696 h -0.267269 -0.26727 V 1.866668 2.1172332 H 9.7851028 9.5178331 V 1.8680734 1.6189135 L 9.2589158,1.6091559 8.9999986,1.5993984 8.9902407,1.340481 8.9804829,1.0815637 H 7.9295148 6.8785461 V 1.3488332 1.6161027 H 6.627981 6.3774158 V 1.8666679 2.1172331 H 5.8428768 5.3083377 V 2.3845026 2.6517721 H 5.0410681 4.7737987 v 0.2686206 0.2686207 l -0.2756217,-0.0097 -0.2756218,-0.0097 -0.00976,-0.2589173 -0.00976,-0.2589172 H 3.436045 2.6690502 V 2.9190436 3.1863133 H 2.4017808 2.1345112 V 3.4535827 3.7208523 H 1.5999722 1.0654331 V 4.5059565 5.2910607 H 1.3327028 1.5999722 V 5.5416259 5.7921911 H 1.8505373 2.1011025 V 5.2743562 4.7565217 H 2.368373 2.6356423 V 4.4878992 4.2192786 l 0.2756218,0.0097 0.2756217,0.0097 0.00976,0.2589175 0.00976,0.2589173 H 3.4555609 3.7047212 V 5.0237874 5.291057 H 3.4374515 3.1701819 V 5.0404918 4.7899266 H 2.9196167 2.6690515 V 5.3077612 5.825596 H 2.4017822 2.1345125 V 6.0761612 6.3267264 H 2.9196167 3.7047212 V 6.0586087 5.7904906 l 0.5261866,0.0092 0.526187,0.0092 0.00974,0.2580762 0.00974,0.2580761 0.5247968,0.00919 0.5247965,0.00919 0.00976,0.2589173 0.00976,0.2589172 h 1.032858 1.0328587 z M 4.2225552,4.5059547 V 4.238685 l 0.5261869,-0.0092 0.526187,-0.0092 V 3.9538629 3.6874418 h 0.2853248 0.285325 l -0.0097,0.2756215 -0.0097,0.2756217 -0.2589173,0.00976 -0.2589173,0.00976 v 0.2435918 c 0,0.1339755 -0.01039,0.2539815 -0.023087,0.2666801 -0.0127,0.0127 -0.2569998,0.018963 -0.5428914,0.01392 L 4.2225581,4.7732246 Z M 16.400023,3.7208505 V 3.1863114 H 15.882188 15.364353 V 3.4535808 3.7208505 H 15.08038 14.796406 V 3.4535808 3.1863114 h -0.26727 -0.267269 V 2.9190418 2.6517724 h -0.517835 -0.517835 v 0.534539 0.5345391 h -0.267269 -0.26727 V 3.169607 2.6183636 h 0.26727 0.267269 V 2.3677984 2.1172332 h 0.534539 0.534539 v 0.2505652 c 0,0.1766927 0.01231,0.2513872 0.04176,0.2533533 0.02297,0.00153 0.139482,0.00529 0.258918,0.00835 l 0.217156,0.00556 0.0098,0.2589172 0.0098,0.2589176 h 0.24916 0.24916 V 2.9023376 2.6517724 h 0.534539 c 0.293996,0 0.535732,0.011274 0.537191,0.025056 0.0028,0.026571 0.0221,0.3190934 0.02753,0.4176088 0.0028,0.050198 0.03866,0.058465 0.253791,0.058465 h 0.250565 v 0.5512432 0.5512435 h -0.26727 -0.267269 z m -7.4167294,0 V 3.1863114 H 8.1981894 7.4130852 V 3.4535808 3.7208505 H 7.1458158 6.8785461 V 3.9881198 4.2553895 H 6.6112765 6.3440071 V 3.9714156 3.6874418 H 6.6112765 6.8785461 V 3.4201721 3.1529028 h 0.24916 0.2491597 l 0.00976,-0.2589176 0.00976,-0.2589173 H 8.1981894 8.999998 l 0.00973,0.257537 0.00973,0.2575369 0.2575369,0.00973 0.257537,0.00973 0.00928,0.4996627 c 0.00511,0.2748143 0.00183,0.5191154 -0.0073,0.5428912 -0.011665,0.0304 -0.096213,0.043229 -0.2849068,0.043229 H 8.9832917 Z M 17.970231,3.4535808 V 3.1863114 h -0.269007 -0.269008 l 0.0064,-0.2672696 0.0064,-0.2672694 h 0.279268 0.27927 v 0.2505652 0.2505652 h 0.26727 0.267269 v 0.2839738 0.2839739 h -0.283974 -0.283974 z m -6.875189,-0.00835 0.0097,-0.2756217 0.275621,-0.0097 0.275622,-0.0097 V 3.4355342 3.7208593 H 11.37066 11.085335 Z"
       style="fill:#ffffff;stroke:#000000;stroke-width:0;stroke-miterlimit:4;stroke-dasharray:none;stroke-opacity:1" />
  </g>
</svg>
