<?xml version="1.0" encoding="UTF-8" standalone="no"?>
<svg
   xmlns:dc="http://purl.org/dc/elements/1.1/"
   xmlns:cc="http://creativecommons.org/ns#"
   xmlns:rdf="http://www.w3.org/1999/02/22-rdf-syntax-ns#"
   xmlns:svg="http://www.w3.org/2000/svg"
   xmlns="http://www.w3.org/2000/svg"
   xmlns:sodipodi="http://sodipodi.sourceforge.net/DTD/sodipodi-0.dtd"
   xmlns:inkscape="http://www.inkscape.org/namespaces/inkscape"
   inkscape:version="1.0beta2 (2b71d25, 2019-12-03)"
   sodipodi:docname="cloud2.svg"
   id="svg8"
   version="1.1"
   viewBox="0 0 21.166665 7.9375"
   height="30"
   width="80">
  <defs
     id="defs2" />
  <sodipodi:namedview
     inkscape:window-maximized="0"
     inkscape:window-y="23"
     inkscape:window-x="0"
     inkscape:window-height="880"
     inkscape:window-width="1600"
     width="60px"
     units="px"
     showgrid="true"
     inkscape:document-rotation="0"
     inkscape:current-layer="layer1"
     inkscape:document-units="mm"
     inkscape:cy="31.56395"
     inkscape:cx="43.416151"
     inkscape:zoom="7.9195959"
     inkscape:pageshadow="2"
     inkscape:pageopacity="0.0"
     borderopacity="1.0"
     bordercolor="#666666"
     pagecolor="#ffffff"
     id="base">
    <inkscape:grid
       empspacing="2"
       id="grid837"
       type="xygrid" />
  </sodipodi:namedview>
  <metadata
     id="metadata5">
    <rdf:RDF>
      <cc:Work
         rdf:about="">
        <dc:format>image/svg+xml</dc:format>
        <dc:type
           rdf:resource="http://purl.org/dc/dcmitype/StillImage" />
        <dc:title></dc:title>
      </cc:Work>
    </rdf:RDF>
  </metadata>
  <g
     id="layer1"
     inkscape:groupmode="layer"
     inkscape:label="Layer 1">
    <rect
       y="2.6458333"
       x="1.0583333"
       height="0.52916664"
       width="0.52916664"
       id="rect1763"
       style="fill:#f2f2f2;stroke:#000000;stroke-width:0;stroke-miterlimit:4;stroke-dasharray:none;stroke-opacity:1" />
    <rect
       style="fill:#f2f2f2;stroke:#000000;stroke-width:0;stroke-miterlimit:4;stroke-dasharray:none;stroke-opacity:1"
       id="rect1763-0"
       width="0.52916664"
       height="0.52916664"
       x="1.058341"
       y="2.1166666" />
    <rect
       y="1.5874999"
       x="1.5875144"
       height="0.52916664"
       width="0.52916664"
       id="rect1763-0-0"
       style="fill:#f2f2f2;stroke:#000000;stroke-width:0;stroke-miterlimit:4;stroke-dasharray:none;stroke-opacity:1" />
    <rect
       style="fill:#f2f2f2;stroke:#000000;stroke-width:0;stroke-miterlimit:4;stroke-dasharray:none;stroke-opacity:1"
       id="rect1763-0-0-7"
       width="0.52916664"
       height="0.52916664"
       x="2.1166868"
       y="1.0583333" />
    <rect
       style="fill:#f2f2f2;stroke:#000000;stroke-width:0;stroke-miterlimit:4;stroke-dasharray:none;stroke-opacity:1"
       id="rect1763-0-0-9"
       width="0.52916664"
       height="0.52916664"
       x="2.6458478"
       y="1.0583332" />
    <rect
       style="fill:#f2f2f2;stroke:#000000;stroke-width:0;stroke-miterlimit:4;stroke-dasharray:none;stroke-opacity:1"
       id="rect1763-0-0-97"
       width="0.52916664"
       height="0.52916664"
       x="3.1750145"
       y="1.5874999" />
    <rect
       style="fill:#f2f2f2;stroke:#000000;stroke-width:0;stroke-miterlimit:4;stroke-dasharray:none;stroke-opacity:1"
       id="rect1763-0-0-975"
       width="0.52916664"
       height="0.52916664"
       x="3.7041812"
       y="1.5874999" />
    <rect
       style="fill:#f2f2f2;stroke:#000000;stroke-width:0;stroke-miterlimit:4;stroke-dasharray:none;stroke-opacity:1"
       id="rect1763-0-0-8"
       width="0.52916664"
       height="0.52916664"
       x="4.2333474"
       y="1.0583332" />
    <rect
       style="fill:#f2f2f2;stroke:#000000;stroke-width:0;stroke-miterlimit:4;stroke-dasharray:none;stroke-opacity:1"
       id="rect1763-0-0-4"
       width="0.52916664"
       height="0.52916664"
       x="4.7625141"
       y="0.52916646" />
    <rect
       style="fill:#f2f2f2;stroke:#000000;stroke-width:0;stroke-miterlimit:4;stroke-dasharray:none;stroke-opacity:1"
       id="rect1763-0-0-44"
       width="0.52916664"
       height="0.52916664"
       x="5.2916808"
       y="-2.0662944e-07" />
    <rect
       style="fill:#f2f2f2;stroke:#000000;stroke-width:0;stroke-miterlimit:4;stroke-dasharray:none;stroke-opacity:1"
       id="rect1763-0-0-41"
       width="0.52916664"
       height="0.52916664"
       x="5.8208475"
       y="-2.1060308e-07" />
    <rect
       style="fill:#f2f2f2;stroke:#000000;stroke-width:0;stroke-miterlimit:4;stroke-dasharray:none;stroke-opacity:1"
       id="rect1763-0-0-80"
       width="0.52916664"
       height="0.52916664"
       x="6.3500142"
       y="-2.1060308e-07" />
    <rect
       style="fill:#f2f2f2;stroke:#000000;stroke-width:0;stroke-miterlimit:4;stroke-dasharray:none;stroke-opacity:1"
       id="rect1763-0-0-40"
       width="0.52916664"
       height="0.52916664"
       x="6.8791809"
       y="-2.1060308e-07" />
    <rect
       style="fill:#f2f2f2;stroke:#000000;stroke-width:0;stroke-miterlimit:4;stroke-dasharray:none;stroke-opacity:1"
       id="rect1763-0-0-444"
       width="0.52916664"
       height="0.52916664"
       x="7.4083476"
       y="0.52916646" />
    <rect
       style="fill:#f2f2f2;stroke:#000000;stroke-width:0;stroke-miterlimit:4;stroke-dasharray:none;stroke-opacity:1"
       id="rect1763-0-0-1"
       width="0.52916664"
       height="0.52916664"
       x="7.9375143"
       y="1.0583332" />
    <rect
       style="fill:#f2f2f2;stroke:#000000;stroke-width:0;stroke-miterlimit:4;stroke-dasharray:none;stroke-opacity:1"
       id="rect1763-0-0-16"
       width="0.52916664"
       height="0.52916664"
       x="7.9375143"
       y="1.5874999" />
    <rect
       style="fill:#f2f2f2;stroke:#000000;stroke-width:0;stroke-miterlimit:4;stroke-dasharray:none;stroke-opacity:1"
       id="rect1763-0-0-17"
       width="0.52916664"
       height="0.52916664"
       x="7.9375138"
       y="1.0583333" />
    <rect
       style="fill:#f2f2f2;stroke:#000000;stroke-width:0;stroke-miterlimit:4;stroke-dasharray:none;stroke-opacity:1"
       id="rect1763-0-0-75"
       width="0.52916664"
       height="0.52916664"
       x="8.4666805"
       y="0.52916646" />
    <rect
       style="fill:#f2f2f2;stroke:#000000;stroke-width:0;stroke-miterlimit:4;stroke-dasharray:none;stroke-opacity:1"
       id="rect1763-0-0-61"
       width="0.52916664"
       height="0.52916664"
       x="8.9958467"
       y="0.52916646" />
    <rect
       style="fill:#f2f2f2;stroke:#000000;stroke-width:0;stroke-miterlimit:4;stroke-dasharray:none;stroke-opacity:1"
       id="rect1763-0-0-2"
       width="0.52916664"
       height="0.52916664"
       x="14.816676"
       y="1.5874999" />
    <rect
       style="fill:#f2f2f2;stroke:#000000;stroke-width:0;stroke-miterlimit:4;stroke-dasharray:none;stroke-opacity:1"
       id="rect1763-0-0-30"
       width="0.52916664"
       height="0.52916664"
       x="15.345842"
       y="2.1166666" />
    <rect
       style="fill:#f2f2f2;stroke:#000000;stroke-width:0;stroke-miterlimit:4;stroke-dasharray:none;stroke-opacity:1"
       id="rect1763-0-0-0"
       width="0.52916664"
       height="0.52916664"
       x="15.875009"
       y="2.6458333" />
    <rect
       style="fill:#f2f2f2;stroke:#000000;stroke-width:0;stroke-miterlimit:4;stroke-dasharray:none;stroke-opacity:1"
       id="rect1763-0-0-90"
       width="0.52916664"
       height="0.52916664"
       x="16.404175"
       y="2.1166666" />
    <rect
       style="fill:#f2f2f2;stroke:#000000;stroke-width:0;stroke-miterlimit:4;stroke-dasharray:none;stroke-opacity:1"
       id="rect1763-0-0-96"
       width="0.52916664"
       height="0.52916664"
       x="16.933344"
       y="2.1166663" />
    <rect
       style="fill:#f2f2f2;stroke:#000000;stroke-width:0;stroke-miterlimit:4;stroke-dasharray:none;stroke-opacity:1"
       id="rect1763-0-0-63"
       width="0.52916664"
       height="0.52916664"
       x="17.462511"
       y="2.1166663" />
    <rect
       style="fill:#f2f2f2;stroke:#000000;stroke-width:0;stroke-miterlimit:4;stroke-dasharray:none;stroke-opacity:1"
       id="rect1763-0-0-98"
       width="0.52916664"
       height="0.52916664"
       x="17.991678"
       y="2.645833" />
    <rect
       style="fill:#f2f2f2;stroke:#000000;stroke-width:0;stroke-miterlimit:4;stroke-dasharray:none;stroke-opacity:1"
       id="rect1763-0-0-08"
       width="0.52916664"
       height="0.52916664"
       x="18.520845"
       y="3.1749997" />
    <rect
       style="fill:#f2f2f2;stroke:#000000;stroke-width:0;stroke-miterlimit:4;stroke-dasharray:none;stroke-opacity:1"
       id="rect1763-0-0-22"
       width="0.52916664"
       height="0.52916664"
       x="19.050013"
       y="3.1749997" />
    <rect
       style="fill:#f2f2f2;stroke:#000000;stroke-width:0;stroke-miterlimit:4;stroke-dasharray:none;stroke-opacity:1"
       id="rect1763-0-0-58"
       width="0.52916664"
       height="0.52916664"
       x="19.57918"
       y="3.7041664" />
    <rect
       style="fill:#f2f2f2;stroke:#000000;stroke-width:0;stroke-miterlimit:4;stroke-dasharray:none;stroke-opacity:1"
       id="rect1763-0-0-51"
       width="0.52916664"
       height="0.52916664"
       x="19.57918"
       y="4.2333331" />
    <rect
       style="fill:#f2f2f2;stroke:#000000;stroke-width:0;stroke-miterlimit:4;stroke-dasharray:none;stroke-opacity:1"
       id="rect1763-0-0-31"
       width="0.52916664"
       height="0.52916664"
       x="19.57918"
       y="4.7624998" />
    <rect
       style="fill:#f2f2f2;stroke:#000000;stroke-width:0;stroke-miterlimit:4;stroke-dasharray:none;stroke-opacity:1"
       id="rect1763-0-0-29"
       width="0.52916664"
       height="0.52916664"
       x="19.050013"
       y="5.2916665" />
    <rect
       style="fill:#f2f2f2;stroke:#000000;stroke-width:0;stroke-miterlimit:4;stroke-dasharray:none;stroke-opacity:1"
       id="rect1763-0-0-18"
       width="0.52916664"
       height="0.52916664"
       x="18.520845"
       y="5.8208332" />
    <rect
       style="fill:#f2f2f2;stroke:#000000;stroke-width:0;stroke-miterlimit:4;stroke-dasharray:none;stroke-opacity:1"
       id="rect1763-0-0-87"
       width="0.52916664"
       height="0.52916664"
       x="17.991678"
       y="6.3499999" />
    <rect
       style="fill:#f2f2f2;stroke:#000000;stroke-width:0;stroke-miterlimit:4;stroke-dasharray:none;stroke-opacity:1"
       id="rect1763-0-0-37"
       width="0.52916664"
       height="0.52916664"
       x="17.462511"
       y="6.3499999" />
    <rect
       style="fill:#f2f2f2;stroke:#000000;stroke-width:0;stroke-miterlimit:4;stroke-dasharray:none;stroke-opacity:1"
       id="rect1763-0-0-53"
       width="0.52916664"
       height="0.52916664"
       x="16.933344"
       y="6.3499999" />
    <rect
       style="fill:#f2f2f2;stroke:#000000;stroke-width:0;stroke-miterlimit:4;stroke-dasharray:none;stroke-opacity:1"
       id="rect1763-0-0-12"
       width="0.52916664"
       height="0.52916664"
       x="16.404177"
       y="6.3499999" />
    <rect
       style="fill:#f2f2f2;stroke:#000000;stroke-width:0;stroke-miterlimit:4;stroke-dasharray:none;stroke-opacity:1"
       id="rect1763-0-0-302"
       width="0.52916664"
       height="0.52916664"
       x="15.87501"
       y="5.8208332" />
    <rect
       style="fill:#f2f2f2;stroke:#000000;stroke-width:0;stroke-miterlimit:4;stroke-dasharray:none;stroke-opacity:1"
       id="rect1763-0-0-47"
       width="0.52916664"
       height="0.52916664"
       x="15.345843"
       y="6.3499999" />
    <rect
       style="fill:#f2f2f2;stroke:#000000;stroke-width:0;stroke-miterlimit:4;stroke-dasharray:none;stroke-opacity:1"
       id="rect1763-0-0-24"
       width="0.52916664"
       height="0.52916664"
       x="14.816677"
       y="6.3499999" />
    <rect
       style="fill:#f2f2f2;stroke:#000000;stroke-width:0;stroke-miterlimit:4;stroke-dasharray:none;stroke-opacity:1"
       id="rect1763-0-0-27"
       width="0.52916664"
       height="0.52916664"
       x="8.9958487"
       y="5.8208332" />
    <rect
       style="fill:#f2f2f2;stroke:#000000;stroke-width:0;stroke-miterlimit:4;stroke-dasharray:none;stroke-opacity:1"
       id="rect1763-0-0-170"
       width="0.52916664"
       height="0.52916664"
       x="8.4666824"
       y="5.8208332" />
    <rect
       style="fill:#f2f2f2;stroke:#000000;stroke-width:0;stroke-miterlimit:4;stroke-dasharray:none;stroke-opacity:1"
       id="rect1763-0-0-34"
       width="0.52916664"
       height="0.52916664"
       x="7.9375157"
       y="5.8208332" />
    <rect
       style="fill:#f2f2f2;stroke:#000000;stroke-width:0;stroke-miterlimit:4;stroke-dasharray:none;stroke-opacity:1"
       id="rect1763-0-0-175"
       width="0.52916664"
       height="0.52916664"
       x="7.408349"
       y="5.2916665" />
    <rect
       style="fill:#f2f2f2;stroke:#000000;stroke-width:0;stroke-miterlimit:4;stroke-dasharray:none;stroke-opacity:1"
       id="rect1763-0-0-52"
       width="0.52916664"
       height="0.52916664"
       x="6.8791809"
       y="5.2916665" />
    <rect
       style="fill:#f2f2f2;stroke:#000000;stroke-width:0;stroke-miterlimit:4;stroke-dasharray:none;stroke-opacity:1"
       id="rect1763-0-0-70"
       width="0.52916664"
       height="0.52916664"
       x="6.3500142"
       y="5.8208332" />
    <rect
       style="fill:#f2f2f2;stroke:#000000;stroke-width:0;stroke-miterlimit:4;stroke-dasharray:none;stroke-opacity:1"
       id="rect1763-0-0-33"
       width="0.52916664"
       height="0.52916664"
       x="5.8208475"
       y="5.8208332" />
    <rect
       style="fill:#f2f2f2;stroke:#000000;stroke-width:0;stroke-miterlimit:4;stroke-dasharray:none;stroke-opacity:1"
       id="rect1763-0-0-04"
       width="0.52916664"
       height="0.52916664"
       x="5.2916808"
       y="5.8208332" />
    <rect
       style="fill:#f2f2f2;stroke:#000000;stroke-width:0;stroke-miterlimit:4;stroke-dasharray:none;stroke-opacity:1"
       id="rect1763-0-0-185"
       width="0.52916664"
       height="0.52916664"
       x="4.7625141"
       y="5.8208332" />
    <rect
       style="fill:#f2f2f2;stroke:#000000;stroke-width:0;stroke-miterlimit:4;stroke-dasharray:none;stroke-opacity:1"
       id="rect1763-0-0-971"
       width="0.52916664"
       height="0.52916664"
       x="4.2333474"
       y="5.2916665" />
    <rect
       style="fill:#f2f2f2;stroke:#000000;stroke-width:0;stroke-miterlimit:4;stroke-dasharray:none;stroke-opacity:1"
       id="rect1763-0-0-799"
       width="0.52916664"
       height="0.52916664"
       x="3.7041807"
       y="5.2916665" />
    <rect
       style="fill:#f2f2f2;stroke:#000000;stroke-width:0;stroke-miterlimit:4;stroke-dasharray:none;stroke-opacity:1"
       id="rect1763-0-0-94"
       width="0.52916664"
       height="0.52916664"
       x="3.175014"
       y="5.8208332" />
    <rect
       style="fill:#f2f2f2;stroke:#000000;stroke-width:0;stroke-miterlimit:4;stroke-dasharray:none;stroke-opacity:1"
       id="rect1763-0-0-510"
       width="0.52916664"
       height="0.52916664"
       x="2.6458473"
       y="6.3499999" />
    <rect
       style="fill:#f2f2f2;stroke:#000000;stroke-width:0;stroke-miterlimit:4;stroke-dasharray:none;stroke-opacity:1"
       id="rect1763-0-0-372"
       width="0.52916664"
       height="0.52916664"
       x="2.1166806"
       y="6.3499999" />
    <rect
       style="fill:#f2f2f2;stroke:#000000;stroke-width:0;stroke-miterlimit:4;stroke-dasharray:none;stroke-opacity:1"
       id="rect1763-0-0-759"
       width="0.52916664"
       height="0.52916664"
       x="1.5875139"
       y="5.8208332" />
    <rect
       style="fill:#f2f2f2;stroke:#000000;stroke-width:0;stroke-miterlimit:4;stroke-dasharray:none;stroke-opacity:1"
       id="rect1763-0-0-72"
       width="0.52916664"
       height="0.52916664"
       x="1.0583472"
       y="5.2916665" />
    <rect
       style="fill:#f2f2f2;stroke:#000000;stroke-width:0;stroke-miterlimit:4;stroke-dasharray:none;stroke-opacity:1"
       id="rect1763-0-0-62"
       width="0.52916664"
       height="0.52916664"
       x="1.0583472"
       y="3.7041664" />
    <rect
       style="fill:#f2f2f2;stroke:#000000;stroke-width:0;stroke-miterlimit:4;stroke-dasharray:none;stroke-opacity:1"
       id="rect1763-0-0-82"
       width="0.52916664"
       height="0.52916664"
       x="0.52918059"
       y="3.1749997" />
    <rect
       style="fill:#f2f2f2;stroke:#000000;stroke-width:0;stroke-miterlimit:4;stroke-dasharray:none;stroke-opacity:1"
       id="rect1763-0-0-03"
       width="0.52916664"
       height="0.52916664"
       x="1.0583472"
       y="4.2333331" />
    <rect
       style="fill:#f2f2f2;stroke:#000000;stroke-width:0;stroke-miterlimit:4;stroke-dasharray:none;stroke-opacity:1"
       id="rect1763-0-0-472"
       width="0.52916664"
       height="0.52916664"
       x="0.52918059"
       y="4.7624998" />
    <rect
       style="fill:#f2f2f2;stroke:#000000;stroke-width:0;stroke-miterlimit:4;stroke-dasharray:none;stroke-opacity:1"
       id="rect1763-0-0-030"
       width="0.52916664"
       height="0.52916664"
       x="5.820847"
       y="2.645833" />
    <rect
       style="fill:#f2f2f2;stroke:#000000;stroke-width:0;stroke-miterlimit:4;stroke-dasharray:none;stroke-opacity:1"
       id="rect1763-0-0-870"
       width="0.52916664"
       height="0.52916664"
       x="6.3500142"
       y="2.1166663" />
    <rect
       style="fill:#f2f2f2;stroke:#000000;stroke-width:0;stroke-miterlimit:4;stroke-dasharray:none;stroke-opacity:1"
       id="rect1763-0-0-26"
       width="0.52916664"
       height="0.52916664"
       x="6.8791809"
       y="2.1166663" />
    <rect
       style="fill:#f2f2f2;stroke:#000000;stroke-width:0;stroke-miterlimit:4;stroke-dasharray:none;stroke-opacity:1"
       id="rect1763-0-0-805"
       width="0.52916664"
       height="0.52916664"
       x="7.4083471"
       y="3.1749997" />
    <rect
       style="fill:#f2f2f2;stroke:#000000;stroke-width:0;stroke-miterlimit:4;stroke-dasharray:none;stroke-opacity:1"
       id="rect1763-0-0-66"
       width="0.52916664"
       height="0.52916664"
       x="7.4083471"
       y="2.645833" />
    <rect
       transform="scale(-1,1)"
       y="3.1749997"
       x="-5.820847"
       height="0.52916664"
       width="0.52916664"
       id="rect1763-0-0-030-8"
       style="fill:#f2f2f2;stroke:#000000;stroke-width:0;stroke-miterlimit:4;stroke-dasharray:none;stroke-opacity:1" />
    <rect
       transform="scale(-1,1)"
       y="2.645833"
       x="-5.2916803"
       height="0.52916664"
       width="0.52916664"
       id="rect1763-0-0-870-3"
       style="fill:#f2f2f2;stroke:#000000;stroke-width:0;stroke-miterlimit:4;stroke-dasharray:none;stroke-opacity:1" />
    <rect
       transform="scale(-1,1)"
       y="2.645833"
       x="-4.7625136"
       height="0.52916664"
       width="0.52916664"
       id="rect1763-0-0-26-5"
       style="fill:#f2f2f2;stroke:#000000;stroke-width:0;stroke-miterlimit:4;stroke-dasharray:none;stroke-opacity:1" />
    <rect
       transform="scale(-1,1)"
       y="3.7041664"
       x="-4.2333469"
       height="0.52916664"
       width="0.52916664"
       id="rect1763-0-0-805-1"
       style="fill:#f2f2f2;stroke:#000000;stroke-width:0;stroke-miterlimit:4;stroke-dasharray:none;stroke-opacity:1" />
    <rect
       transform="scale(-1,1)"
       y="3.1749997"
       x="-4.2333469"
       height="0.52916664"
       width="0.52916664"
       id="rect1763-0-0-66-9"
       style="fill:#f2f2f2;stroke:#000000;stroke-width:0;stroke-miterlimit:4;stroke-dasharray:none;stroke-opacity:1" />
    <rect
       y="3.1749997"
       x="2.1166801"
       height="0.52916664"
       width="0.52916664"
       id="rect1763-0-0-030-7"
       style="fill:#f2f2f2;stroke:#000000;stroke-width:0;stroke-miterlimit:4;stroke-dasharray:none;stroke-opacity:1" />
    <rect
       y="2.645833"
       x="2.6458468"
       height="0.52916664"
       width="0.52916664"
       id="rect1763-0-0-870-0"
       style="fill:#f2f2f2;stroke:#000000;stroke-width:0;stroke-miterlimit:4;stroke-dasharray:none;stroke-opacity:1" />
    <rect
       y="3.1749997"
       x="8.9958477"
       height="0.52916664"
       width="0.52916664"
       id="rect1763-0-0-66-0"
       style="fill:#f2f2f2;stroke:#000000;stroke-width:0;stroke-miterlimit:4;stroke-dasharray:none;stroke-opacity:1" />
    <rect
       y="3.7041664"
       x="14.816676"
       height="0.52916664"
       width="0.52916664"
       id="rect1763-0-0-66-1"
       style="fill:#f2f2f2;stroke:#000000;stroke-width:0;stroke-miterlimit:4;stroke-dasharray:none;stroke-opacity:1" />
    <rect
       y="4.2333331"
       x="15.345842"
       height="0.52916664"
       width="0.52916664"
       id="rect1763-0-0-66-8"
       style="fill:#f2f2f2;stroke:#000000;stroke-width:0;stroke-miterlimit:4;stroke-dasharray:none;stroke-opacity:1" />
    <rect
       y="4.2333331"
       x="15.875009"
       height="0.52916664"
       width="0.52916664"
       id="rect1763-0-0-66-12"
       style="fill:#f2f2f2;stroke:#000000;stroke-width:0;stroke-miterlimit:4;stroke-dasharray:none;stroke-opacity:1" />
    <rect
       transform="scale(-1,1)"
       y="5.2916665"
       x="-18.520845"
       height="0.52916664"
       width="0.52916664"
       id="rect1763-0-0-66-05"
       style="fill:#f2f2f2;stroke:#000000;stroke-width:0;stroke-miterlimit:4;stroke-dasharray:none;stroke-opacity:1" />
    <rect
       transform="scale(-1,1)"
       y="4.7624998"
       x="-18.520844"
       height="0.52916664"
       width="0.52916664"
       id="rect1763-0-0-66-89"
       style="fill:#f2f2f2;stroke:#000000;stroke-width:0;stroke-miterlimit:4;stroke-dasharray:none;stroke-opacity:1" />
    <rect
       transform="scale(-1,1)"
       y="4.2333331"
       x="-17.991676"
       height="0.52916664"
       width="0.52916664"
       id="rect1763-0-0-66-2"
       style="fill:#f2f2f2;stroke:#000000;stroke-width:0;stroke-miterlimit:4;stroke-dasharray:none;stroke-opacity:1" />
    <rect
       transform="scale(-1,1)"
       y="4.7624998"
       x="-17.462509"
       height="0.52916664"
       width="0.52916664"
       id="rect1763-0-0-66-4"
       style="fill:#f2f2f2;stroke:#000000;stroke-width:0;stroke-miterlimit:4;stroke-dasharray:none;stroke-opacity:1" />
    <rect
       y="5.8208332"
       x="16.404177"
       height="0.52916664"
       width="0.52916664"
       id="rect1763-0-0-66-7"
       style="fill:#f2f2f2;stroke:#000000;stroke-width:0;stroke-miterlimit:4;stroke-dasharray:none;stroke-opacity:1" />
    <path
       transform="scale(0.26458333)"
       inkscape:connector-curvature="0"
       id="path2341"
       d="M 8.0345563,22.933459 7.9976777,21.954873 7.0190924,21.917995 6.0405071,21.881116 V 20.93941 19.997703 H 5.0303546 4.020202 v -0.947018 -0.947018 h 1.0101526 1.0101525 v -2.08344 -2.083439 H 5.0303546 4.020202 V 12.98977 12.042752 H 5.0303546 6.0405071 V 10.022447 8.0021414 h 1.0101525 1.0101526 v -0.947018 -0.947018 h 1.9571708 1.95717 v 0.947018 0.947018 h 2.020305 2.020306 V 7.0604348 6.1187283 l 0.978585,-0.036879 0.978585,-0.036879 0.03688,-0.9785853 0.03688,-0.9785853 h 1.00484 1.004842 V 3.0776478 2.0674952 h 3.977475 3.977476 v 1.0101526 1.0101525 h 0.947018 0.947018 v 1.9571706 1.9571705 h 1.073287 1.073287 V 6.0449709 4.0878003 h 2.967323 2.967323 v 1.0101525 1.0101526 h 1.010153 1.010152 v 0.947018 0.947018 h 1.010153 1.010153 v -0.947018 -0.947018 h 2.967323 2.967323 v 0.947018 0.947018 h 1.010152 1.010153 v 1.0101526 1.010153 h 1.95717 1.957171 v 2.967323 2.967323 H 52.949468 52.00245 v 1.010152 1.010153 h -0.943812 -0.943811 l -0.03477,-1.988738 -0.03477,-1.988738 -0.973367,-0.03679 -0.973368,-0.03678 -0.03679,-0.973368 -0.03679,-0.973368 -1.041719,-0.03667 -1.04172,-0.03667 v 1.01526 1.015259 H 44.93138 43.921228 v 1.073287 1.073287 h 1.073287 1.073287 v -1.010153 -1.010152 h 0.947018 0.947018 v 2.020305 2.020305 h 1.010152 1.010153 v 0.947018 0.947018 H 47.01482 44.047497 v -1.01016 -1.010152 h -2.029582 -2.029584 l 0.04085,1.04172 0.04084,1.041719 -2.051872,-0.03746 -2.051873,-0.03746 v 0.952907 0.952909 H 32.998953 30.03163 V 20.944721 19.997703 H 28.011325 25.99102 v 0.941707 0.941706 l -0.978585,0.03688 c -0.538222,0.02028 -2.328086,0.02071 -3.977476,8.84e-4 l -2.99889,-0.03594 v -0.942647 -0.942645 h -2.020305 -2.020306 v 0.941707 0.941706 l -0.978585,0.03688 -0.978585,0.03693 -0.03688,0.978586 -0.03688,0.978585 H 10.017983 8.0714351 Z m 7.9812077,-8.870402 v -2.020305 h 1.95717 1.957171 v 1.010152 1.010153 h 1.073287 1.073287 v -1.010153 -1.010152 h 1.010152 1.010153 v -1.010153 -1.010152 h 1.95717 1.957171 v 2.020305 2.020305 h 1.010153 1.010152 V 11.979617 9.8961774 H 29.021478 28.011325 V 8.9491594 8.0021414 H 25.99102 23.970715 v 0.9417067 0.9417065 l -0.978585,0.036879 -0.978586,0.036879 -0.03688,0.9785854 -0.03688,0.978586 h -0.936395 -0.936395 l -0.03688,-0.978586 -0.03688,-0.9785854 h -2.020305 -2.020305 l -0.03688,0.9785854 -0.03688,0.978586 H 14.937157 13.99545 v 2.083439 2.08344 h 1.010153 1.010153 z m -5.934647,-1.010153 v -1.010152 h 1.015259 1.01526 l -0.03667,-1.04172 -0.03667,-1.04172 H 11.028143 10.017991 L 9.981112,10.937897 9.944233,11.916483 H 8.9393843 7.9345431 v 1.073287 1.073287 h 1.0732871 1.0732868 z m 26.011428,0 v -1.010152 h 0.947018 0.947018 v 1.010152 1.010153 h 2.020305 2.020306 V 12.98977 11.916483 H 40.006886 37.986581 V 10.90633 9.8961774 h -1.010152 -1.010153 v 1.0101526 1.010153 h -1.010152 -1.010153 v 1.073287 1.073287 h 1.073287 1.073287 z"
       style="fill:#ffffff;stroke:#000000;stroke-width:0;stroke-miterlimit:4;stroke-dasharray:none;stroke-opacity:1" />
    <rect
       y="0.5291664"
       x="9.5250139"
       height="0.52916664"
       width="0.52916664"
       id="rect1763-0-0-40-3"
       style="fill:#f2f2f2;stroke:#000000;stroke-width:0;stroke-miterlimit:4;stroke-dasharray:none;stroke-opacity:1" />
    <rect
       y="1.058333"
       x="10.05418"
       height="0.52916664"
       width="0.52916664"
       id="rect1763-0-0-40-5"
       style="fill:#f2f2f2;stroke:#000000;stroke-width:0;stroke-miterlimit:4;stroke-dasharray:none;stroke-opacity:1" />
    <rect
       y="6.8791666"
       x="14.287506"
       height="0.52916664"
       width="0.52916664"
       id="rect1763-0-0-40-6"
       style="fill:#f2f2f2;stroke:#000000;stroke-width:0;stroke-miterlimit:4;stroke-dasharray:none;stroke-opacity:1" />
    <rect
       y="6.8791666"
       x="13.758346"
       height="0.52916664"
       width="0.52916664"
       id="rect1763-0-0-40-8"
       style="fill:#f2f2f2;stroke:#000000;stroke-width:0;stroke-miterlimit:4;stroke-dasharray:none;stroke-opacity:1" />
    <rect
       y="6.8791666"
       x="13.229179"
       height="0.52916664"
       width="0.52916664"
       id="rect1763-0-0-40-7"
       style="fill:#f2f2f2;stroke:#000000;stroke-width:0;stroke-miterlimit:4;stroke-dasharray:none;stroke-opacity:1" />
    <rect
       y="6.8791666"
       x="12.700012"
       height="0.52916664"
       width="0.52916664"
       id="rect1763-0-0-40-2"
       style="fill:#f2f2f2;stroke:#000000;stroke-width:0;stroke-miterlimit:4;stroke-dasharray:none;stroke-opacity:1" />
    <rect
       y="6.3499999"
       x="12.170847"
       height="0.52916664"
       width="0.52916664"
       id="rect1763-0-0-40-68"
       style="fill:#f2f2f2;stroke:#000000;stroke-width:0;stroke-miterlimit:4;stroke-dasharray:none;stroke-opacity:1" />
    <rect
       y="6.3499999"
       x="11.64168"
       height="0.52916664"
       width="0.52916664"
       id="rect1763-0-0-40-4"
       style="fill:#f2f2f2;stroke:#000000;stroke-width:0;stroke-miterlimit:4;stroke-dasharray:none;stroke-opacity:1" />
    <rect
       y="6.3499999"
       x="11.112514"
       height="0.52916664"
       width="0.52916664"
       id="rect1763-0-0-40-0"
       style="fill:#f2f2f2;stroke:#000000;stroke-width:0;stroke-miterlimit:4;stroke-dasharray:none;stroke-opacity:1" />
    <rect
       y="5.8208332"
       x="10.583347"
       height="0.52916664"
       width="0.52916664"
       id="rect1763-0-0-40-64"
       style="fill:#f2f2f2;stroke:#000000;stroke-width:0;stroke-miterlimit:4;stroke-dasharray:none;stroke-opacity:1" />
    <rect
       y="6.3499999"
       x="10.054181"
       height="0.52916664"
       width="0.52916664"
       id="rect1763-0-0-40-86"
       style="fill:#f2f2f2;stroke:#000000;stroke-width:0;stroke-miterlimit:4;stroke-dasharray:none;stroke-opacity:1" />
    <rect
       y="6.3499999"
       x="9.5250149"
       height="0.52916664"
       width="0.52916664"
       id="rect1763-0-0-40-15"
       style="fill:#f2f2f2;stroke:#000000;stroke-width:0;stroke-miterlimit:4;stroke-dasharray:none;stroke-opacity:1" />
    <rect
       y="1.5874996"
       x="10.583347"
       height="0.52916664"
       width="0.52916664"
       id="rect1763-0-0-40-32"
       style="fill:#f2f2f2;stroke:#000000;stroke-width:0;stroke-miterlimit:4;stroke-dasharray:none;stroke-opacity:1" />
    <rect
       y="1.0583329"
       x="11.112514"
       height="0.52916664"
       width="0.52916664"
       id="rect1763-0-0-40-45"
       style="fill:#f2f2f2;stroke:#000000;stroke-width:0;stroke-miterlimit:4;stroke-dasharray:none;stroke-opacity:1" />
    <rect
       y="0.52916628"
       x="11.64168"
       height="0.52916664"
       width="0.52916664"
       id="rect1763-0-0-40-02"
       style="fill:#f2f2f2;stroke:#000000;stroke-width:0;stroke-miterlimit:4;stroke-dasharray:none;stroke-opacity:1" />
    <rect
       y="0.52916628"
       x="12.170846"
       height="0.52916664"
       width="0.52916664"
       id="rect1763-0-0-40-18"
       style="fill:#f2f2f2;stroke:#000000;stroke-width:0;stroke-miterlimit:4;stroke-dasharray:none;stroke-opacity:1" />
    <rect
       y="0.52916628"
       x="12.700012"
       height="0.52916664"
       width="0.52916664"
       id="rect1763-0-0-40-80"
       style="fill:#f2f2f2;stroke:#000000;stroke-width:0;stroke-miterlimit:4;stroke-dasharray:none;stroke-opacity:1" />
    <rect
       y="0.52916628"
       x="13.229178"
       height="0.52916664"
       width="0.52916664"
       id="rect1763-0-0-40-9"
       style="fill:#f2f2f2;stroke:#000000;stroke-width:0;stroke-miterlimit:4;stroke-dasharray:none;stroke-opacity:1" />
    <rect
       y="1.0583329"
       x="13.758345"
       height="0.52916664"
       width="0.52916664"
       id="rect1763-0-0-40-88"
       style="fill:#f2f2f2;stroke:#000000;stroke-width:0;stroke-miterlimit:4;stroke-dasharray:none;stroke-opacity:1" />
    <rect
       y="1.5874996"
       x="14.287511"
       height="0.52916664"
       width="0.52916664"
       id="rect1763-0-0-40-69"
       style="fill:#f2f2f2;stroke:#000000;stroke-width:0;stroke-miterlimit:4;stroke-dasharray:none;stroke-opacity:1" />
    <rect
       y="3.1749997"
       x="11.112514"
       height="0.52916664"
       width="0.52916664"
       id="rect1763-0-0-40-85"
       style="fill:#f2f2f2;stroke:#000000;stroke-width:0;stroke-miterlimit:4;stroke-dasharray:none;stroke-opacity:1" />
    <rect
       y="2.645833"
       x="11.64168"
       height="0.52916664"
       width="0.52916664"
       id="rect1763-0-0-40-65"
       style="fill:#f2f2f2;stroke:#000000;stroke-width:0;stroke-miterlimit:4;stroke-dasharray:none;stroke-opacity:1" />
    <rect
       y="2.645833"
       x="12.170846"
       height="0.52916664"
       width="0.52916664"
       id="rect1763-0-0-40-321"
       style="fill:#f2f2f2;stroke:#000000;stroke-width:0;stroke-miterlimit:4;stroke-dasharray:none;stroke-opacity:1" />
    <rect
       y="2.645833"
       x="12.700012"
       height="0.52916664"
       width="0.52916664"
       id="rect1763-0-0-40-97"
       style="fill:#f2f2f2;stroke:#000000;stroke-width:0;stroke-miterlimit:4;stroke-dasharray:none;stroke-opacity:1" />
    <rect
       y="3.1749997"
       x="13.229178"
       height="0.52916664"
       width="0.52916664"
       id="rect1763-0-0-40-55"
       style="fill:#f2f2f2;stroke:#000000;stroke-width:0;stroke-miterlimit:4;stroke-dasharray:none;stroke-opacity:1" />
    <rect
       y="3.7041664"
       x="11.112514"
       height="0.52916664"
       width="0.52916664"
       id="rect1763-0-0-40-95"
       style="fill:#f2f2f2;stroke:#000000;stroke-width:0;stroke-miterlimit:4;stroke-dasharray:none;stroke-opacity:1" />
    <rect
       y="3.7041664"
       x="13.758345"
       height="0.52916664"
       width="0.52916664"
       id="rect1763-0-0-40-36"
       style="fill:#f2f2f2;stroke:#000000;stroke-width:0;stroke-miterlimit:4;stroke-dasharray:none;stroke-opacity:1" />
    <path
       transform="scale(0.26458333)"
       inkscape:connector-curvature="0"
       id="path2544"
       d="m 48.06185,24.953764 -0.03688,-0.978585 -2.99362,-0.03384 -2.993619,-0.03384 -0.03684,-0.976312 -0.03684,-0.976313 -0.978585,-0.03688 -0.978586,-0.03688 v 1.015465 1.015463 h -1.951859 -1.951859 l -0.03688,-0.978585 -0.03688,-0.978586 -2.998891,-0.03385 -2.99889,-0.03385 V 20.942435 19.997703 H 28.011325 25.99102 V 20.93 c 0,0.866725 -0.01998,0.936079 -0.284106,0.986041 -0.241381,0.04566 -3.868249,0.04045 -6.818529,-0.0098 l -0.852316,-0.01452 v -0.947018 -0.947018 h -2.020305 -2.020306 v 0.947018 c 0,0.811296 -0.03167,0.949442 -0.22097,0.963938 -0.121534,0.0093 -0.533487,0.03153 -0.915451,0.04938 -0.381964,0.01785 -0.737096,0.03865 -0.789182,0.04622 -0.05209,0.0076 -0.0947,0.439912 -0.0947,0.960772 v 0.947018 h -1.95717 -1.9571708 v -0.947018 c 0,-0.52086 -0.042616,-0.953208 -0.094702,-0.960772 -0.052086,-0.0076 -0.4072178,-0.02836 -0.7891817,-0.04622 C 6.7949648,21.940186 6.3830119,21.917965 6.261478,21.908659 6.0721754,21.894163 6.0405071,21.756017 6.0405071,20.944721 V 19.997703 H 5.0303546 4.020202 v -0.947018 -0.947018 h 1.0101526 1.0101525 v -2.08344 -2.083439 H 5.0303546 4.020202 V 12.98977 12.042752 H 5.0303546 6.0405071 V 10.022447 8.0021414 h 1.0101525 1.0101526 v -0.947018 -0.947018 h 1.9571708 1.95717 v 0.947018 0.947018 h 2.020305 2.020306 v -0.947018 c 0,-0.8112969 0.03167,-0.9494429 0.22097,-0.9639378 0.121534,-0.00931 0.533487,-0.031527 0.915451,-0.04938 0.381964,-0.017853 0.737096,-0.03865 0.789182,-0.046215 0.05209,-0.00757 0.0947,-0.4399131 0.0947,-0.960773 v -0.947018 h 1.010152 1.010153 V 3.0776478 2.0674952 h 3.977475 3.977476 v 1.0101526 1.0101525 h 0.947018 0.947018 v 1.9571706 1.9571705 h 1.073287 1.073287 V 6.0449709 4.0878003 h 2.967323 2.967323 v 1.0101525 1.0101526 h 1.010153 1.010152 v 0.947018 0.947018 h 1.010153 1.010153 V 7.0604348 6.1187283 l 0.978585,-0.036879 0.978585,-0.036879 0.03688,-0.9785853 0.03688,-0.9785853 h 3.972163 3.972165 v 1.0101525 1.0101526 h 0.947018 0.947018 v 0.947018 0.947018 h 2.020305 2.020305 v 1.0101526 1.0101526 h 1.010153 1.010152 v 1.015259 1.015259 l 1.04172,-0.03667 1.04172,-0.03667 0.03688,-0.978585 0.03688,-0.978585 h 2.898877 2.898878 v 1.010152 1.010153 h 1.010152 1.010153 v 1.010152 1.010153 h 2.020305 2.020305 v 2.967323 2.967323 h -1.010153 -1.010152 v 0.947018 0.947018 h -0.947018 -0.947018 v -1.957171 -1.95717 H 69.048772 68.03862 V 16.962139 15.94688 l -1.04172,0.03667 -1.04172,0.03667 -0.03688,0.978586 -0.03688,0.978585 h -0.941705 -0.941708 v 1.010152 1.010153 h 1.010153 1.010153 V 19.050678 18.10366 h 0.947018 0.947018 v 1.95717 1.957171 h 1.010152 1.010153 v 0.947018 0.947018 h -2.967323 -2.967324 v -1.013358 -1.01336 l -1.988737,0.03477 -1.988738,0.03477 -0.03682,0.975406 -0.03682,0.975406 -1.983484,0.03475 -1.983483,0.03475 -0.03688,0.978585 -0.03688,0.978585 H 52.002448 48.09873 Z M 62.040839,17.03038 v -1.010153 l -1.988738,-0.03477 -1.988738,-0.03477 V 14.943734 13.936788 H 56.98497 55.906576 l 0.03667,1.041719 0.03667,1.04172 0.978585,0.03688 0.978585,0.03688 v 0.920662 c 0,0.506364 0.03927,0.95993 0.08726,1.007925 0.048,0.048 0.971338,0.07167 2.051873,0.05261 l 1.964609,-0.03465 z M 16.015764,14.063057 v -2.020305 h 1.95717 1.957171 v 1.010152 1.010153 h 1.073287 1.073287 v -1.010153 -1.010152 h 1.010152 1.010153 v -1.010153 -1.010152 h 1.95717 1.957171 v 2.020305 2.020305 h 1.010153 1.010152 V 11.979617 9.8961774 H 29.021478 28.011325 V 8.9491594 8.0021414 H 25.99102 23.970715 v 0.947018 c 0,0.6678149 -0.04653,0.9501248 -0.157837,0.9575557 -0.08681,0.0058 -0.527173,0.020001 -0.978585,0.031567 l -0.820749,0.02103 -0.03688,0.9785849 -0.03688,0.978586 h -0.941706 -0.941707 v -0.947018 -0.947018 h -2.020305 c -1.111168,0 -2.024816,0.04261 -2.030329,0.0947 -0.01063,0.100424 -0.08352,1.206022 -0.104056,1.578364 -0.01047,0.189723 -0.146109,0.220971 -0.959208,0.220971 h -0.947018 v 2.083439 2.08344 h 1.010153 1.010153 z m 28.031733,0 v -2.020305 h 2.967323 2.967323 v 1.010152 1.010153 h 1.010152 1.010153 v 1.010152 1.010153 h 1.010153 1.010152 v -1.073287 -1.073287 h -1.010152 -1.010153 v -1.010153 -1.010152 h -0.941707 -0.941706 l -0.03688,-0.978586 -0.03688,-0.978585 H 47.01482 43.984362 l -0.03678,0.973368 -0.03678,0.973368 -0.973368,0.03678 -0.973368,0.03679 -0.03509,1.888489 c -0.0193,1.038668 -0.0069,1.962011 0.0276,2.051872 0.04409,0.114899 0.363638,0.163384 1.076813,0.163384 h 1.014115 z m -33.96638,-1.010153 v -1.010152 h 1.016722 1.016721 L 12.09021,11.032599 12.06586,10.022447 H 11.010357 9.9548482 v 0.947018 0.947018 H 8.9446957 7.9345431 v 1.073287 1.073287 h 1.0732871 1.0732868 z m 25.984967,-0.03157 -0.03667,-1.04172 -1.04172,-0.03667 -1.04172,-0.03667 v 1.078394 1.078394 h 1.078394 1.078393 z"
       style="fill:#ffffff;stroke:#000000;stroke-width:0;stroke-miterlimit:4;stroke-dasharray:none;stroke-opacity:1" />
  </g>
</svg>
