<?xml version="1.0" encoding="UTF-8" standalone="no"?>
<svg
   xmlns:dc="http://purl.org/dc/elements/1.1/"
   xmlns:cc="http://creativecommons.org/ns#"
   xmlns:rdf="http://www.w3.org/1999/02/22-rdf-syntax-ns#"
   xmlns:svg="http://www.w3.org/2000/svg"
   xmlns="http://www.w3.org/2000/svg"
   xmlns:sodipodi="http://sodipodi.sourceforge.net/DTD/sodipodi-0.dtd"
   xmlns:inkscape="http://www.inkscape.org/namespaces/inkscape"
   inkscape:version="1.0beta2 (2b71d25, 2019-12-03)"
   sodipodi:docname="heart.svg"
   id="svg8"
   version="1.1"
   viewBox="0 0 50.270833 50.270833"
   height="190"
   width="190">
  <defs
     id="defs2" />
  <sodipodi:namedview
     inkscape:window-maximized="0"
     inkscape:window-y="23"
     inkscape:window-x="0"
     inkscape:window-height="880"
     inkscape:window-width="1600"
     inkscape:object-nodes="false"
     units="px"
     showgrid="true"
     inkscape:document-rotation="0"
     inkscape:current-layer="layer1"
     inkscape:document-units="px"
     inkscape:cy="48.662969"
     inkscape:cx="25.597673"
     inkscape:zoom="1.4142136"
     inkscape:pageshadow="2"
     inkscape:pageopacity="0.0"
     borderopacity="1.0"
     bordercolor="#666666"
     pagecolor="#ffffff"
     id="base">
    <inkscape:grid
       dotted="true"
       originy="0"
       originx="0"
       id="grid10"
       type="xygrid" />
  </sodipodi:namedview>
  <metadata
     id="metadata5">
    <rdf:RDF>
      <cc:Work
         rdf:about="">
        <dc:format>image/svg+xml</dc:format>
        <dc:type
           rdf:resource="http://purl.org/dc/dcmitype/StillImage" />
        <dc:title></dc:title>
      </cc:Work>
    </rdf:RDF>
  </metadata>
  <g
     id="layer1"
     inkscape:groupmode="layer"
     inkscape:label="Layer 1">
    <rect
       y="13.229166"
       x="5.2916665"
       height="2.6458333"
       width="2.6458333"
       id="rect665"
       style="fill:#ffaaaa;stroke-width:0.264583" />
    <g
       style="stroke:none"
       id="g1731">
      <rect
         style="fill:#2b2200;stroke-width:0.264582;stroke:none"
         id="rect12-0-3"
         width="2.6458321"
         height="2.6458333"
         x="29.104166"
         y="42.333347" />
      <rect
         style="fill:#2b2200;stroke-width:0.264582;stroke:none"
         id="rect12-0-9"
         width="2.6458349"
         height="2.6458333"
         x="31.749998"
         y="39.687515" />
      <rect
         y="37.041679"
         x="34.395832"
         height="2.6458333"
         width="2.6458349"
         id="rect12-0-9-9"
         style="fill:#2b2200;stroke-width:0.264582;stroke:none" />
      <rect
         style="fill:#2b2200;stroke-width:0.264582;stroke:none"
         id="rect12-0-9-9-9"
         width="2.6458349"
         height="2.6458333"
         x="37.041664"
         y="34.395847" />
      <rect
         y="31.750015"
         x="39.687496"
         height="2.6458333"
         width="2.6458349"
         id="rect12-0-9-9-9-1"
         style="fill:#2b2200;stroke-width:0.264582;stroke:none" />
      <rect
         style="fill:#2b2200;stroke-width:0.264582;stroke:none"
         id="rect12-0-9-9-9-1-7"
         width="2.6458349"
         height="2.6458333"
         x="42.333332"
         y="29.104179" />
      <rect
         style="fill:#2b2200;stroke-width:0.264582;stroke:none"
         id="rect12-0-9-9-9-1-2"
         width="2.6458349"
         height="2.6458333"
         x="42.333336"
         y="2.6458335" />
      <rect
         y="23.812513"
         x="47.624992"
         height="2.6458333"
         width="2.6458349"
         id="rect12-0-9-9-9-1-2-3"
         style="fill:#2b2200;stroke-width:0.264582;stroke:none" />
      <rect
         style="fill:#2b2200;stroke-width:0.648091;stroke:none"
         id="rect12-0-9-9-9-1-2-3-6"
         width="2.6458349"
         height="15.875001"
         x="47.625"
         y="10.583333" />
      <rect
         y="2.6227659e-07"
         x="31.75"
         height="2.6458333"
         width="10.583337"
         id="rect12-0-9-9-9-1-2-3-6-5-5-8"
         style="fill:#2b2200;stroke-width:0.529164;stroke:none" />
      <rect
         y="29.104179"
         x="42.333328"
         height="2.6458333"
         width="2.6458349"
         id="rect12-0-9-9-9-1-2-4"
         style="fill:#2b2200;stroke-width:0.264582;stroke:none" />
      <rect
         y="5.2916665"
         x="44.979164"
         height="5.291666"
         width="2.6458349"
         id="rect12-0-9-9-9-1-2-8"
         style="fill:#2b2200;stroke-width:0.374175;stroke:none" />
      <rect
         style="fill:#2b2200;stroke-width:0.264582;stroke:none"
         id="rect12-0-9-9-9-1-2-8-0"
         width="2.6458349"
         height="2.6458333"
         x="44.979164"
         y="26.458347" />
      <rect
         y="2.6458335"
         x="29.104168"
         height="2.6458333"
         width="2.6458328"
         id="rect12-0-9-9-9-1-2-1"
         style="fill:#2b2200;stroke-width:0.264582;stroke:none" />
      <rect
         y="5.2916665"
         x="26.458334"
         height="3.023809"
         width="2.6458337"
         id="rect12-0-9-9-9-1-2-1-3-7"
         style="fill:#2b2200;stroke-width:0.28285;stroke:none" />
      <rect
         y="42.333347"
         x="-21.166662"
         height="2.6458333"
         width="2.6458321"
         id="rect12-0-3-5"
         style="fill:#2b2200;stroke-width:0.264582;stroke:none"
         transform="scale(-1,1)" />
      <rect
         y="39.687511"
         x="-18.52083"
         height="2.6458333"
         width="2.6458349"
         id="rect12-0-9-8"
         style="fill:#2b2200;stroke-width:0.264582;stroke:none"
         transform="scale(-1,1)" />
      <rect
         style="fill:#2b2200;stroke-width:0.264582;stroke:none"
         id="rect12-0-9-9-2"
         width="2.6458349"
         height="2.6458333"
         x="-15.874994"
         y="37.041676"
         transform="scale(-1,1)" />
      <rect
         y="34.395847"
         x="-13.229162"
         height="2.6458333"
         width="2.6458349"
         id="rect12-0-9-9-9-9"
         style="fill:#2b2200;stroke-width:0.264582;stroke:none"
         transform="scale(-1,1)" />
      <rect
         style="fill:#2b2200;stroke-width:0.264582;stroke:none"
         id="rect12-0-9-9-9-1-8"
         width="2.6458349"
         height="2.6458333"
         x="-10.58333"
         y="31.750011"
         transform="scale(-1,1)" />
      <rect
         y="29.104176"
         x="-7.9374943"
         height="2.6458333"
         width="2.6458349"
         id="rect12-0-9-9-9-1-7-2"
         style="fill:#2b2200;stroke-width:0.264582;stroke:none"
         transform="scale(-1,1)" />
      <rect
         y="2.6458333"
         x="-7.9374962"
         height="2.6458333"
         width="2.6458349"
         id="rect12-0-9-9-9-1-2-0"
         style="fill:#2b2200;stroke-width:0.264582;stroke:none"
         transform="scale(-1,1)" />
      <rect
         style="fill:#2b2200;stroke-width:0.264582;stroke:none"
         id="rect12-0-9-9-9-1-2-3-7"
         width="2.6458349"
         height="2.6458333"
         x="-2.6458335"
         y="23.812513"
         transform="scale(-1,1)" />
      <rect
         y="10.583333"
         x="-2.6458359"
         height="15.874999"
         width="2.6458349"
         id="rect12-0-9-9-9-1-2-3-6-4"
         style="fill:#2b2200;stroke-width:0.648092;stroke:none"
         transform="scale(-1,1)" />
      <rect
         style="fill:#2b2200;stroke-width:0.529164;stroke:none"
         id="rect12-0-9-9-9-1-2-3-6-5-5-8-8"
         width="10.583337"
         height="2.6458333"
         x="-18.520832"
         y="-2.6764649e-06"
         transform="scale(-1,1)" />
      <rect
         style="fill:#2b2200;stroke-width:0.264582;stroke:none"
         id="rect12-0-9-9-9-1-2-4-5"
         width="2.6458349"
         height="2.6458333"
         x="-7.9375019"
         y="29.104176"
         transform="scale(-1,1)" />
      <rect
         style="fill:#2b2200;stroke-width:0.374174;stroke:none"
         id="rect12-0-9-9-9-1-2-8-8"
         width="2.6458349"
         height="5.291666"
         x="-5.2916679"
         y="5.2916651"
         transform="scale(-1,1)" />
      <rect
         y="26.458349"
         x="-5.2916622"
         height="2.6458333"
         width="2.6458349"
         id="rect12-0-9-9-9-1-2-8-0-3"
         style="fill:#2b2200;stroke-width:0.264582;stroke:none"
         transform="scale(-1,1)" />
      <rect
         style="fill:#2b2200;stroke-width:0.264582;stroke:none"
         id="rect12-0-9-9-9-1-2-1-0"
         width="2.6458328"
         height="2.6458333"
         x="-21.166664"
         y="2.6458333"
         transform="scale(-1,1)" />
      <rect
         style="fill:#2b2200;stroke-width:0.273869;stroke:none"
         id="rect12-0-9-9-9-1-2-1-3-7-6"
         width="2.6458337"
         height="2.8348231"
         x="-23.812496"
         y="5.2916651"
         transform="scale(-1,1)" />
      <rect
         style="fill:#2b2200;stroke-width:0.273868;stroke:none"
         id="rect12-0-9-9-9-1-2-1-3-2"
         width="2.6458349"
         height="2.8348215"
         x="-26.458334"
         y="7.9375014"
         transform="scale(-1,1)" />
      <rect
         y="44.979168"
         x="21.166662"
         height="2.6458333"
         width="2.6458373"
         id="rect12-0-9-9-9-1-2-1-3-9-1-2"
         style="fill:#2b2200;stroke-width:0.264581;stroke:none" />
      <rect
         style="fill:#2b2200;stroke-width:0.264581;stroke:none"
         id="rect12-0-9-9-9-1-2-1-3-9-1-2-9"
         width="2.6458373"
         height="2.6458333"
         x="23.812496"
         y="47.625011" />
      <rect
         style="fill:#2b2200;stroke-width:0.264581;stroke:none"
         id="rect12-0-9-9-9-1-2-1-3-9-1-2-0"
         width="2.6458373"
         height="2.6458333"
         x="26.45833"
         y="44.979179" />
      <rect
         style="fill:#d40000;stroke-width:0.264583;stroke:none"
         id="rect647"
         width="2.6458333"
         height="2.6458333"
         x="2.6458333"
         y="10.583333" />
      <rect
         style="fill:#ff0000;stroke-width:0.264583;stroke:none"
         id="rect649"
         width="2.6458333"
         height="2.6458333"
         x="13.229166"
         y="2.645833" />
      <rect
         style="fill:#ff0000;stroke-width:0.264583;stroke:none"
         id="rect651"
         width="2.6458333"
         height="2.6458333"
         x="7.9374995"
         y="5.2916665" />
      <rect
         style="fill:#ffaaaa;stroke-width:0.264583;stroke:none"
         id="rect659"
         width="2.6458333"
         height="2.6458333"
         x="5.2916665"
         y="10.583333" />
      <rect
         style="fill:#ffaaaa;stroke-width:0.264583;stroke:none"
         id="rect661"
         width="2.6458333"
         height="2.6458333"
         x="7.9375"
         y="7.9375" />
      <rect
         style="fill:#ffaaaa;stroke-width:0.264583;stroke:none"
         id="rect663"
         width="2.6458333"
         height="2.6458333"
         x="10.583333"
         y="5.2916665" />
      <rect
         style="fill:#ffaaaa;stroke-width:0.264583;stroke:none"
         id="rect667"
         width="2.6458333"
         height="2.6458333"
         x="13.229166"
         y="5.2916665" />
    </g>
    <path
       transform="scale(0.26458333)"
       inkscape:connector-curvature="0"
       id="path1741"
       d="m 90.651497,174.81082 v -4.94975 h -5.303301 -5.3033 v -4.94975 -4.94974 h -4.949748 -4.949747 v -5.3033 -5.30331 h -4.949748 -4.949747 v -4.94974 -4.94975 h -4.949748 -4.949747 v -4.94975 -4.94975 h -4.949748 -4.949747 v -4.94974 -4.94975 h -4.949748 -4.949747 v -4.94975 -4.94975 H 25.597673 20.647926 V 104.80725 99.8575 H 15.344625 10.041324 V 75.108763 50.360025 h 4.949748 4.949747 v 4.949748 4.949747 h 5.303301 5.303301 V 50.360025 40.46053 h 4.949747 4.949748 v -4.949747 -4.949748 h 9.899495 9.899495 V 20.307987 10.054939 h 4.596194 4.596194 v 5.303301 5.303301 h 4.949747 4.949748 v 5.3033 5.303301 h 5.303301 5.3033 v 4.949748 4.949747 h 5.303301 5.303299 v -4.596194 -4.596194 h 4.94975 4.94975 v -5.656854 -5.656854 h 4.94974 4.94975 V 15.35824 10.054939 h 19.79899 19.79899 v 5.303301 5.303301 h 4.94975 4.94975 v 9.899494 9.899495 h 4.94974 4.94975 V 70.159015 99.8575 h -4.94975 -4.94974 v 4.94975 4.94974 h -4.94975 -4.94975 v 4.94975 4.94975 h -5.3033 -5.3033 v 4.94975 4.94974 h -4.94975 -4.94974 v 4.94975 4.94975 h -4.94975 -4.94975 v 4.94975 4.94974 h -4.94975 -4.94974 v 5.30331 5.3033 h -4.94975 -4.94975 v 4.94974 4.94975 h -4.94975 -4.949745 v 4.94975 4.94975 h -4.596194 -4.596194 z"
       style="fill:#aa0000;fill-opacity:1;stroke:#000000;stroke-width:0.707107;stroke-opacity:1" />
    <path
       transform="scale(0.26458333)"
       inkscape:connector-curvature="0"
       id="path1743"
       d="m 30.547421,15.004686 v -4.949747 h 9.545941 9.545942 v 4.949747 4.949748 h -9.545942 -9.545941 z"
       style="fill:#aa0000;fill-opacity:1;stroke:#000000;stroke-width:0.707107;stroke-opacity:1" />
    <path
       transform="scale(0.26458333)"
       inkscape:connector-curvature="0"
       id="path1745"
       d="m 20.647926,30.207482 v -9.545941 h 4.596194 4.596194 v 9.545941 9.545942 H 25.24412 20.647926 Z"
       style="fill:#aa0000;fill-opacity:1;stroke:#000000;stroke-width:0.707107;stroke-opacity:1" />
  </g>
</svg>
